<?xml version="1.0" encoding="utf-8"?>
<!-- Generator: Adobe Illustrator 16.0.0, SVG Export Plug-In . SVG Version: 6.00 Build 0)  -->
<!DOCTYPE svg PUBLIC "-//W3C//DTD SVG 1.1//EN" "http://www.w3.org/Graphics/SVG/1.1/DTD/svg11.dtd" [
	<!ENTITY ns_extend "http://ns.adobe.com/Extensibility/1.0/">
	<!ENTITY ns_ai "http://ns.adobe.com/AdobeIllustrator/10.0/">
	<!ENTITY ns_graphs "http://ns.adobe.com/Graphs/1.0/">
	<!ENTITY ns_vars "http://ns.adobe.com/Variables/1.0/">
	<!ENTITY ns_imrep "http://ns.adobe.com/ImageReplacement/1.0/">
	<!ENTITY ns_sfw "http://ns.adobe.com/SaveForWeb/1.0/">
	<!ENTITY ns_custom "http://ns.adobe.com/GenericCustomNamespace/1.0/">
	<!ENTITY ns_adobe_xpath "http://ns.adobe.com/XPath/1.0/">
]>
<svg version="1.1" xmlns:x="&ns_extend;" xmlns:i="&ns_ai;" xmlns:graph="&ns_graphs;"
	 xmlns="http://www.w3.org/2000/svg" xmlns:xlink="http://www.w3.org/1999/xlink" x="0px" y="0px" width="495px" height="521px"
	 viewBox="0 0 495 521" enable-background="new 0 0 495 521" xml:space="preserve">
<metadata>
	<sfw  xmlns="&ns_sfw;">
		<slices></slices>
		<sliceSourceBounds  width="475.92" height="494.697" bottomLeftOrigin="true" y="-694.809" x="71.223"></sliceSourceBounds>
	</sfw>
</metadata>
<g id="pinkCircle">
	<circle fill="#125680" cx="250.742" cy="312.865" r="194.944"/>
</g>
<g id="innerCircle">
	<path fill="#1B6B94" d="M250.742,135.078c-98.189,0-177.788,79.599-177.788,177.787c0,98.189,79.598,177.786,177.788,177.786
		s177.786-79.597,177.786-177.786C428.528,214.677,348.932,135.078,250.742,135.078z M250.742,474.082
		c-89.038,0-161.218-72.179-161.218-161.217s72.18-161.217,161.218-161.217s161.217,72.179,161.217,161.217
		S339.78,474.082,250.742,474.082z"/>
</g>
<g id="board">
	<path fill="#0B3F59" d="M172,350.274c0,0-97-143.274,7-330.274c0,0,7.5-15.5,15.25,0c0,0,104.25,156.049,7.75,330.274L187,323.5
		L172,350.274z"/>
	<path fill="#125680" d="M188.5,30.5c0,0-33.695,58.946-43.5,118C144.81,144.604,147.524,80.729,188.5,30.5z"/>
</g>
<g id="Outback">
	<g>
		<g>
			<path fill="#0B3F59" d="M47.005,296.718c14.207-3.807,24.473-1.795,20.038,27.561c-4.188,27.649-14.865,31.905-29.647,35.866
				s-24.473,1.877-20.12-26.636C21.71,304.152,33.208,300.414,47.005,296.718z M39.614,345.262
				c7.062-1.893,9.444-5.487,11.498-18.767c2.217-14.555,1.15-16.896-6.324-14.895c-7.228,1.937-9.28,4.375-11.58,19.691
				C31.237,344.385,31.565,347.418,39.614,345.262z"/>
			<path fill="#0B3F59" d="M77.225,289.03l15.932-4.269l-5.338,35.265c-1.232,8.05-1.806,12.885,5.995,10.795
				c7.31-1.959,8.295-7.232,9.445-14.932l5.338-35.266l16.014-4.291l-4.928,37.619c-4.188,27.648-18.231,29.111-28.168,31.773
				c-11.169,2.993-23.734,4.553-19.381-23.96L77.225,289.03z"/>
			<path fill="#0B3F59" d="M128.962,275.167l46.646-12.498l-2.3,14.906l-15.604,4.181l-7.226,47.761l-15.932,4.269l7.227-47.761
				l-15.111,4.049L128.962,275.167z"/>
			<path fill="#0B3F59" d="M180.041,261.48l25.294-6.777c12.812-3.433,17.082,3.307,15.44,13.931
				c-0.822,5.312-4.764,11.624-10.758,13.723c5.995-0.62,9.28,4.822,8.212,12.91c-2.218,16.197-9.362,18.604-22.01,21.993
				l-25.705,6.888L180.041,261.48z M197.533,303.44c3.122-0.836,4.354-3.303,4.928-7.069c0.492-3.17,0.082-5.936-3.121-5.077
				l-8.952,2.398l-1.806,12.146L197.533,303.44z M200.572,278.317c2.464-0.66,4.024-2.967,4.353-5.354
				c0.575-3.768-1.15-4.373-2.956-3.889l-8.13,2.179l-1.397,9.243L200.572,278.317z"/>
			<path fill="#0B3F59" d="M245.74,243.877l18.806-5.039l8.706,57.781l-16.343,4.379l-1.726-10.05l-15.438,4.138l-4.681,11.766
				l-17.657,4.731L245.74,243.877z M254.117,277.685l-1.89-15.59l-6.734,17.9L254.117,277.685z"/>
			<path fill="#0B3F59" d="M303.309,227.795c11.826-3.169,14.536-3.238,21.188-2.394l-1.971,12.93
				c-0.082,0.022-8.048,0.76-16.508,3.027c-6.898,1.848-9.772,2.29-12.4,19.747c-2.136,14.04-1.067,16.546,7.227,14.323
				c8.624-2.311,16.836-5.25,16.836-5.25l-1.972,12.93c-5.42,3.587-9.937,5.536-22.091,8.547
				c-15.111,3.802-19.054-7.952-15.932-28.99C280.643,242.737,286.966,232.174,303.309,227.795z"/>
			<path fill="#0B3F59" d="M330.162,221.256l15.111-4.049l-3.777,24.663l2.464-0.66l16.014-27.942l19.135-5.127l-21.271,37.154
				l11.744,25.514l-17.903,4.797l-8.212-20.793l-4.024,1.078l-3.614,23.963l-15.192,4.07L330.162,221.256z"/>
		</g>
	</g>
	<g>
		<path fill="#46C2C6" d="M41,294.716c14.207-3.807,24.473-1.795,20.038,27.561c-4.188,27.649-14.865,31.905-29.647,35.866
			s-24.473,1.877-20.12-26.636C15.705,302.15,27.203,298.412,41,294.716z M33.609,343.26c7.062-1.893,9.444-5.487,11.498-18.767
			c2.217-14.555,1.15-16.896-6.324-14.895c-7.228,1.937-9.28,4.375-11.58,19.691C25.232,342.383,25.561,345.416,33.609,343.26z"/>
		<path fill="#46C2C6" d="M71.22,287.028l15.932-4.269l-5.338,35.265c-1.232,8.05-1.806,12.885,5.995,10.795
			c7.31-1.959,8.295-7.232,9.445-14.932l5.338-35.266l16.014-4.291l-4.928,37.619c-4.188,27.648-18.231,29.111-28.168,31.773
			c-11.169,2.993-23.734,4.553-19.381-23.96L71.22,287.028z"/>
		<path fill="#46C2C6" d="M122.957,273.165l46.646-12.498l-2.3,14.906l-15.604,4.181l-7.226,47.761l-15.932,4.269l7.227-47.761
			l-15.111,4.049L122.957,273.165z"/>
		<path fill="#46C2C6" d="M174.036,259.479l25.294-6.777c12.812-3.433,17.082,3.307,15.44,13.931
			c-0.822,5.312-4.764,11.624-10.758,13.723c5.995-0.62,9.28,4.822,8.212,12.91c-2.218,16.197-9.362,18.604-22.01,21.993
			l-25.705,6.888L174.036,259.479z M191.528,301.438c3.122-0.836,4.354-3.303,4.928-7.069c0.492-3.17,0.082-5.936-3.121-5.077
			l-8.952,2.398l-1.806,12.146L191.528,301.438z M194.567,276.315c2.464-0.66,4.024-2.967,4.353-5.354
			c0.575-3.768-1.15-4.373-2.956-3.889l-8.13,2.179l-1.397,9.243L194.567,276.315z"/>
		<path fill="#46C2C6" d="M239.735,241.875l18.806-5.039l8.706,57.781l-16.343,4.379l-1.726-10.05l-15.438,4.138l-4.681,11.766
			l-17.657,4.731L239.735,241.875z M248.112,275.683l-1.89-15.59l-6.734,17.9L248.112,275.683z"/>
		<path fill="#46C2C6" d="M297.304,225.793c11.826-3.169,14.536-3.238,21.188-2.394l-1.971,12.93
			c-0.082,0.022-8.048,0.76-16.508,3.027c-6.898,1.848-9.772,2.29-12.4,19.747c-2.136,14.04-1.067,16.546,7.227,14.323
			c8.624-2.311,16.836-5.25,16.836-5.25l-1.972,12.93c-5.42,3.587-9.937,5.536-22.091,8.547
			c-15.111,3.802-19.054-7.952-15.932-28.99C274.638,240.735,280.961,230.172,297.304,225.793z"/>
		<path fill="#46C2C6" d="M324.157,219.254l15.111-4.049l-3.777,24.663l2.464-0.66l16.014-27.942l19.135-5.127l-21.271,37.153
			l11.744,25.514l-17.903,4.797l-8.212-20.793l-4.024,1.078l-3.614,23.963l-15.192,4.07L324.157,219.254z"/>
	</g>
</g>
<g id="Surf">
	<g>
		<path fill="#053247" d="M122.116,418.656c5.006-0.828,19.766-3.884,31.702-7.082c5.519-1.479,7.829-3.51,8.471-7.531l0.256-2.123
			c0.642-3.894-0.256-5.578-5.904-4.065l-8.984,2.407c-24.514,6.568-23.51-15.504-22.717-21.763l1.412-11.159
			c2.566-19.298,15.273-25.525,29.647-29.762c18.995-5.604,28.878-6.969,37.862-5.91l-3.08,20.205
			c-8.086,1.268-20.92,4.322-29.391,6.592c-6.932,1.857-9.498,2.802-10.396,8.433l-0.258,1.48c-0.641,4.15-0.128,6.195,6.803,4.338
			l9.497-2.544c19.509-5.229,21.819,11.094,20.535,21.705l-0.256,8.154c-0.898,24.369-19.124,30.021-31.83,33.427
			c-18.572,4.977-24.257,6.499-36.451,5.403L122.116,418.656z"/>
		<path fill="#053247" d="M206.309,324.867l24.899-6.672l-8.343,55.112c-1.925,12.581-2.823,20.137,9.37,16.87
			c11.422-3.061,12.963-11.303,14.76-23.335l8.342-55.112l25.027-6.706l-7.701,58.791c-6.545,43.208-28.492,45.495-44.021,49.655
			c-17.456,4.678-37.092,7.116-30.29-37.445L206.309,324.867z"/>
		<path fill="#053247" d="M290.242,302.377l39.402-10.558c16.685-4.471,27.724,2.583,24.001,26.938
			c-3.594,23.294-13.091,27.765-18.354,29.944l13.091,32.043l-28.363,7.6l-9.627-31.944l-4.62,0.725l-5.519,36.516l-24.899,6.672
			L290.242,302.377z M320.02,334.569c6.545-1.754,7.571-5.365,8.599-12.314c0.898-5.888,0.128-9.018-5.52-7.505l-11.165,2.992
			l-3.081,19.819L320.02,334.569z"/>
		<path fill="#053247" d="M362.884,306.015c2.952-19.272,16.044-27.4,27.594-30.495c0,0,24.258-6.5,39.018-8.401l-3.208,21.78
			l-31.702,8.494c-6.674,1.788-7.315,5.682-7.828,9.284l-0.899,5.888l31.702-7.082l-3.209,21.521l-32.215,9.788l-5.519,36.388
			l-24.899,6.672L362.884,306.015z"/>
	</g>
	<g>
		<path fill="#ED2576" d="M118.113,415.654c5.006-0.828,19.766-3.884,31.702-7.082c5.519-1.479,7.829-3.51,8.471-7.531l0.256-2.123
			c0.642-3.894-0.256-5.578-5.904-4.065l-8.984,2.407c-24.514,6.568-23.51-15.504-22.717-21.763l1.412-11.159
			c2.566-19.298,15.273-25.525,29.647-29.762c18.995-5.604,28.878-6.969,37.862-5.91l-3.08,20.205
			c-8.086,1.268-20.92,4.322-29.391,6.592c-6.932,1.857-9.498,2.802-10.396,8.433l-0.258,1.48c-0.641,4.15-0.128,6.195,6.803,4.338
			l9.497-2.544c19.509-5.229,21.819,11.094,20.535,21.705l-0.256,8.154c-0.898,24.369-19.124,30.021-31.83,33.427
			c-18.572,4.977-24.257,6.499-36.451,5.403L118.113,415.654z"/>
		<path fill="#ED2576" d="M202.306,321.865l24.899-6.672l-8.343,55.112c-1.925,12.581-2.823,20.137,9.37,16.87
			c11.422-3.061,12.963-11.303,14.76-23.335l8.342-55.112l25.027-6.706l-7.701,58.791c-6.545,43.208-28.493,45.495-44.022,49.655
			c-17.456,4.678-37.092,7.116-30.29-37.445L202.306,321.865z"/>
		<path fill="#ED2576" d="M286.239,299.375l39.402-10.558c16.685-4.471,27.724,2.583,24.001,26.938
			c-3.594,23.294-13.091,27.765-18.354,29.944l13.091,32.043l-28.363,7.6l-9.627-31.944l-4.62,0.725l-5.519,36.516l-24.899,6.672
			L286.239,299.375z M316.017,331.567c6.545-1.754,7.571-5.365,8.599-12.314c0.898-5.888,0.128-9.018-5.52-7.505l-11.165,2.992
			l-3.081,19.819L316.017,331.567z"/>
		<path fill="#ED2576" d="M358.881,303.013c2.952-19.272,16.044-27.4,27.594-30.495c0,0,24.258-6.5,39.018-8.401l-3.208,21.78
			l-31.702,8.494c-6.674,1.788-7.315,5.682-7.828,9.284l-0.899,5.888l31.702-7.082l-3.209,21.521l-32.215,9.788l-5.519,36.388
			l-24.899,6.672L358.881,303.013z"/>
	</g>
</g>
<g id="Shack">
	<g>
		<path fill="#0B3F59" d="M229.263,469.175c3.204-0.529,12.648-2.485,20.286-4.531c3.531-0.947,5.01-2.246,5.42-4.819l0.164-1.358
			c0.41-2.491-0.164-3.569-3.778-2.601l-5.748,1.54c-15.686,4.203-15.043-9.92-14.536-13.926l0.904-7.141
			c1.642-12.348,9.772-16.333,18.97-19.043c12.154-3.586,18.479-4.459,24.227-3.782l-1.971,12.929
			c-5.174,0.811-13.386,2.766-18.806,4.218c-4.436,1.188-6.078,1.792-6.652,5.396l-0.165,0.947c-0.41,2.656-0.082,3.965,4.354,2.776
			l6.076-1.628c12.483-3.346,13.962,7.099,13.141,13.889l-0.165,5.219c-0.574,15.592-12.236,19.21-20.366,21.389
			c-11.884,3.184-15.522,4.158-23.324,3.457L229.263,469.175z"/>
		<path fill="#0B3F59" d="M283.383,409.096l15.932-4.269l-3.777,24.91l13.961-3.74l3.778-24.911l15.932-4.269l-9.526,62.666
			l-15.932,4.27l3.448-22.852l-13.96,3.741l-3.45,22.851l-15.932,4.27L283.383,409.096z"/>
		<path fill="#0B3F59" d="M352.776,390.502l18.807-5.039l8.705,57.781l-16.343,4.379l-1.725-10.049l-15.439,4.137l-4.681,11.766
			l-17.657,4.731L352.776,390.502z M361.153,424.31l-1.89-15.59l-6.733,17.9L361.153,424.31z"/>
		<path fill="#0B3F59" d="M410.345,374.42c11.826-3.169,14.536-3.238,21.188-2.393l-1.971,12.929
			c-0.082,0.022-8.048,0.76-16.508,3.027c-6.897,1.848-9.772,2.29-12.4,19.747c-2.136,14.04-1.067,16.546,7.227,14.323
			c8.624-2.311,16.836-5.25,16.836-5.25l-1.972,12.93c-5.42,3.587-9.937,5.536-22.091,8.547
			c-15.111,3.802-19.053-7.952-15.932-28.99C387.679,389.362,394.003,378.799,410.345,374.42z"/>
		<path fill="#0B3F59" d="M437.197,367.882l15.111-4.05l-3.777,24.664l2.464-0.66l16.014-27.942l19.135-5.127l-21.27,37.152
			l11.743,25.514l-17.903,4.798l-8.212-20.794l-4.024,1.078l-3.613,23.963l-15.193,4.07L437.197,367.882z"/>
	</g>
	<g>
		<g>
			<path fill="#46C2C6" d="M224.259,466.172c3.204-0.529,12.648-2.485,20.286-4.531c3.532-0.947,5.01-2.246,5.42-4.819l0.164-1.358
				c0.41-2.491-0.164-3.569-3.778-2.601l-5.748,1.54c-15.686,4.203-15.043-9.92-14.536-13.926l0.904-7.141
				c1.642-12.348,9.772-16.333,18.97-19.043c12.154-3.586,18.478-4.459,24.227-3.782l-1.971,12.929
				c-5.174,0.811-13.386,2.766-18.806,4.218c-4.436,1.188-6.078,1.792-6.653,5.396L242.573,434c-0.41,2.656-0.082,3.965,4.353,2.776
				l6.077-1.628c12.483-3.346,13.962,7.099,13.14,13.889l-0.164,5.219c-0.574,15.592-12.236,19.21-20.366,21.389
				c-11.884,3.184-15.522,4.158-23.324,3.457L224.259,466.172z"/>
			<path fill="#46C2C6" d="M278.379,406.093l15.932-4.269l-3.777,24.91l13.961-3.74l3.777-24.911l15.933-4.269l-9.526,62.666
				l-15.932,4.27l3.448-22.852l-13.96,3.741l-3.45,22.851l-15.933,4.27L278.379,406.093z"/>
			<path fill="#46C2C6" d="M347.771,387.499l18.807-5.039l8.706,57.781l-16.343,4.379l-1.725-10.049l-15.439,4.137l-4.682,11.766
				l-17.656,4.731L347.771,387.499z M356.149,421.307l-1.89-15.59l-6.734,17.9L356.149,421.307z"/>
			<path fill="#46C2C6" d="M405.341,371.417c11.826-3.169,14.536-3.238,21.188-2.393l-1.971,12.929
				c-0.082,0.022-8.049,0.76-16.508,3.027c-6.898,1.848-9.772,2.29-12.4,19.747c-2.136,14.04-1.068,16.546,7.227,14.323
				c8.623-2.311,16.836-5.25,16.836-5.25l-1.972,12.93c-5.42,3.587-9.937,5.536-22.091,8.547
				c-15.111,3.802-19.053-7.952-15.932-28.99C382.675,386.359,388.998,375.796,405.341,371.417z"/>
			<path fill="#46C2C6" d="M432.193,364.879l15.111-4.05l-3.777,24.664l2.463-0.66l16.015-27.942l19.134-5.127l-21.27,37.152
				l11.744,25.514l-17.903,4.798l-8.212-20.794l-4.024,1.078l-3.614,23.963l-15.192,4.07L432.193,364.879z"/>
		</g>
	</g>
</g>
<g id="Ollies">
	<g>
		<g>
			<path fill="#ED2576" d="M87.96,273.692c-3.709,0-7.297-0.424-10.664-1.26c-4.483-1.111-8.6-2.961-12.232-5.497
				c-3.673-2.562-6.73-5.912-9.088-9.957c-3.042-5.062-3.983-10.948-2.785-17.471c1.144-6.243,3.667-12.802,7.499-19.493
				c3.778-6.603,8.624-13.305,14.402-19.921c5.749-6.584,11.989-12.877,18.547-18.705c6.567-5.838,13.31-11.174,20.04-15.858
				c6.552-4.563,12.738-8.232,18.396-10.913c1.061-1.536,2.625-3.204,4.764-5.079c2.272-1.997,5.53-4.501,9.958-7.654
				c6.92-5.079,13.332-8.438,19.031-9.964c3.063-0.821,5.96-1.237,8.609-1.237c2.41,0,4.679,0.344,6.744,1.022
				c4.43,1.458,7.958,4.296,10.485,8.437c2.435,3.994,3.889,8.975,4.321,14.804c0.422,5.704-0.182,12.205-1.794,19.324
				c-1.599,7.066-4.328,14.638-8.111,22.506c-3.895,7.884-8.699,15.629-14.291,23.039c-5.587,7.405-11.906,14.396-18.781,20.779
				c-6.882,6.389-14.303,12.176-22.055,17.202c-7.78,5.043-15.914,9.187-24.178,12.313c-5.054,1.937-10.167,3.099-15.192,3.452
				C90.364,273.649,89.145,273.692,87.96,273.692z M158.371,148.868c2.366,0.764,2.33,2.701,2.291,3.134
				c-0.131,1.383-1.172,2.607-3.479,4.1c-1.774,1.148-4.469,2.425-8.24,3.903c-4.507,1.86-8.966,4.139-13.219,6.759
				c-4.295,2.645-8.471,5.528-12.409,8.569c-3.97,3.064-7.841,6.294-11.505,9.6c-3.676,3.312-7.181,6.621-10.419,9.836
				c-3.086,3.037-6.566,6.912-10.349,11.522c-3.787,4.617-7.453,9.561-10.896,14.697c-3.43,5.117-6.41,10.303-8.857,15.411
				c-2.394,4.994-3.83,9.627-4.267,13.771c-0.413,3.898,0.313,7.027,2.218,9.565c1.84,2.457,5.527,3.987,10.96,4.55
				c1.258,0.133,2.538,0.2,3.811,0.2c5.667,0,11.623-1.337,17.703-3.973c7.601-3.294,15.178-7.942,22.521-13.814
				c7.374-5.894,14.545-12.892,21.314-20.8c6.78-7.92,12.925-16.261,18.265-24.791c5.325-8.506,9.74-17.068,13.123-25.448
				c3.352-8.312,5.454-16.006,6.245-22.871c0.655-6.016-0.143-8.803-0.929-10.079c-1.038-1.684-2.45-2.512-4.442-2.606
				c-0.153-0.007-0.309-0.011-0.466-0.011c-2.229,0-4.886,0.723-7.9,2.149c-3.436,1.63-7.067,3.792-10.791,6.425L158.371,148.868z"
				/>
			<path fill="#083F59" d="M174.435,132.769c2.199,0,4.23,0.306,6.094,0.918c3.962,1.304,7.083,3.818,9.356,7.542
				c2.273,3.728,3.612,8.352,4.021,13.872c0.408,5.521-0.174,11.759-1.748,18.709c-1.574,6.955-4.227,14.307-7.957,22.063
				c-3.847,7.787-8.541,15.351-14.076,22.687c-5.539,7.341-11.716,14.176-18.535,20.507c-6.821,6.331-14.077,11.992-21.771,16.98
				c-7.693,4.987-15.623,9.025-23.781,12.113c-4.896,1.875-9.765,2.981-14.601,3.322c-1.177,0.082-2.336,0.124-3.479,0.124
				c-3.554,0-6.941-0.399-10.16-1.199c-4.256-1.055-8.103-2.782-11.542-5.183c-3.439-2.399-6.267-5.5-8.48-9.298
				c-2.798-4.656-3.646-10.002-2.535-16.043c1.106-6.039,3.524-12.315,7.257-18.834c3.729-6.516,8.451-13.045,14.163-19.585
				c5.71-6.54,11.831-12.714,18.361-18.518c6.526-5.802,13.141-11.039,19.846-15.706c6.702-4.667,12.91-8.328,18.622-10.986
				c0.933-1.487,2.505-3.205,4.722-5.15c2.212-1.944,5.477-4.45,9.792-7.522c6.759-4.96,12.879-8.18,18.36-9.648
				C169.268,133.158,171.958,132.769,174.435,132.769 M152.027,150.783c1.211-0.118,2.282-0.176,3.211-0.176
				c0.589,0,1.122,0.023,1.597,0.071c1.224,0.123,1.806,0.503,1.749,1.135c-0.061,0.637-0.904,1.483-2.535,2.538
				c-1.634,1.058-4.256,2.296-7.868,3.712c-4.665,1.925-9.18,4.232-13.552,6.925c-4.372,2.691-8.569,5.589-12.59,8.694
				c-4.021,3.104-7.899,6.339-11.627,9.702c-3.733,3.364-7.229,6.666-10.492,9.904c-3.148,3.098-6.645,6.99-10.492,11.68
				s-7.52,9.643-11.016,14.858c-3.498,5.219-6.5,10.44-9.005,15.671c-2.508,5.232-3.996,10.053-4.46,14.454
				c-0.466,4.407,0.408,8.083,2.624,11.036c2.212,2.954,6.352,4.745,12.414,5.372c1.332,0.141,2.673,0.212,4.025,0.212
				c5.983,0,12.161-1.383,18.533-4.145c7.809-3.385,15.476-8.087,22.994-14.1c7.52-6.011,14.717-13.036,21.596-21.072
				c6.877-8.034,13.027-16.381,18.448-25.04c5.421-8.659,9.849-17.25,13.289-25.774c3.437-8.521,5.565-16.324,6.383-23.413
				c0.582-5.335,0.174-9.139-1.224-11.411c-1.399-2.27-3.44-3.47-6.12-3.596c-0.186-0.009-0.374-0.013-0.564-0.013
				c-2.553,0-5.483,0.784-8.792,2.35c-3.557,1.688-7.256,3.888-11.103,6.607L152.027,150.783 M174.435,128.598
				c-2.831,0-5.909,0.44-9.149,1.309c-5.943,1.592-12.58,5.057-19.726,10.298c-4.473,3.186-7.777,5.728-10.101,7.769
				c-2.055,1.803-3.627,3.448-4.769,4.994c-5.628,2.707-11.747,6.354-18.206,10.852c-6.797,4.731-13.605,10.118-20.234,16.011
				c-6.623,5.886-12.925,12.242-18.732,18.892c-5.868,6.719-10.794,13.535-14.641,20.256c-3.949,6.896-6.553,13.678-7.74,20.154
				c-1.292,7.025-0.266,13.392,3.048,18.92c2.51,4.298,5.768,7.861,9.684,10.594c3.842,2.683,8.191,4.638,12.925,5.811
				c3.528,0.877,7.285,1.321,11.164,1.321c1.234,0,2.502-0.045,3.771-0.134c5.232-0.368,10.547-1.576,15.801-3.588
				c8.387-3.175,16.654-7.385,24.558-12.509c7.853-5.091,15.369-10.953,22.339-17.423c6.965-6.467,13.366-13.55,19.027-21.052
				c5.669-7.515,10.543-15.372,14.485-23.352c3.871-8.05,6.652-15.771,8.285-22.99c1.658-7.319,2.277-14.027,1.84-19.937
				c-0.457-6.163-2.011-11.457-4.62-15.735c-2.794-4.578-6.702-7.717-11.614-9.333C179.555,128.977,177.066,128.598,174.435,128.598
				L174.435,128.598z M161.911,148.962c2.906-1.934,5.732-3.555,8.429-4.835c2.729-1.292,5.086-1.947,7.003-1.947
				c0.124,0,0.248,0.003,0.369,0.009c1.309,0.062,2.084,0.516,2.764,1.618c0.403,0.656,1.276,2.828,0.628,8.77
				c-0.767,6.653-2.822,14.166-6.104,22.305c-3.336,8.265-7.695,16.717-12.956,25.121c-5.285,8.442-11.369,16.699-18.082,24.541
				c-6.684,7.809-13.76,14.715-21.031,20.526c-7.199,5.758-14.617,10.31-22.048,13.531c-5.817,2.521-11.495,3.8-16.874,3.8
				c-1.199,0-2.406-0.063-3.585-0.188c-4.773-0.493-8.059-1.781-9.515-3.725c-1.576-2.1-2.168-4.747-1.814-8.097
				c0.412-3.907,1.783-8.312,4.073-13.09c2.404-5.02,5.334-10.116,8.708-15.151c3.406-5.079,7.031-9.97,10.776-14.535
				c3.735-4.554,7.165-8.373,10.192-11.353c3.228-3.204,6.708-6.49,10.358-9.779c3.627-3.271,7.457-6.467,11.384-9.499
				c3.882-2.997,7.996-5.838,12.229-8.444c4.148-2.556,8.496-4.778,12.923-6.608c3.883-1.524,6.689-2.858,8.576-4.08
				c2.047-1.324,4.173-3.03,4.422-5.646C162.82,151.295,162.641,150.056,161.911,148.962L161.911,148.962z"/>
		</g>
		<g>
			<path fill="#ED2576" d="M285.1,156.099c-0.262,0-0.534-0.007-0.817-0.023c-1.262-0.067-2.443-0.306-3.511-0.711
				c-1.188-0.444-2.174-1.101-2.924-1.949c-0.93-1.044-1.317-2.356-1.114-3.789c0.147-0.907,0.506-2.027,1.102-3.465
				c0.559-1.348,1.212-2.694,1.94-4.003c0.764-1.371,1.637-2.635,2.597-3.759c1.05-1.227,2.07-2.102,3.121-2.676l0.107-0.058
				l0.112-0.045c0.903-0.365,1.944-0.549,3.094-0.549c0.26,0,0.526,0.009,0.802,0.028c1.406,0.104,2.748,0.427,4,0.962
				c1.311,0.566,2.392,1.292,3.224,2.161c1.302,1.374,1.477,2.647,1.359,3.532c-0.046,1.02-0.465,2.209-1.306,3.724
				c-0.743,1.334-1.616,2.681-2.597,4.006c-0.99,1.342-2.054,2.595-3.158,3.721c-1.273,1.296-2.318,2.094-3.291,2.511l-0.138,0.06
				l-0.146,0.039C286.837,156.006,286.033,156.099,285.1,156.099L285.1,156.099z"/>
			<path fill="#083F59" d="M288.807,137.157c0.214,0,0.434,0.007,0.66,0.023c1.163,0.085,2.272,0.35,3.322,0.799
				c1.049,0.453,1.893,1.013,2.535,1.685c0.639,0.674,0.9,1.309,0.786,1.901c0,0.676-0.35,1.643-1.048,2.899
				c-0.701,1.259-1.517,2.518-2.45,3.78c-0.934,1.265-1.923,2.432-2.971,3.5c-1.051,1.07-1.926,1.755-2.623,2.054
				c-0.536,0.143-1.177,0.215-1.919,0.215c-0.226,0-0.461-0.007-0.705-0.02c-1.05-0.056-2.011-0.248-2.884-0.579
				c-0.875-0.327-1.575-0.786-2.1-1.38c-0.524-0.589-0.729-1.295-0.612-2.115c0.115-0.707,0.438-1.693,0.963-2.96
				c0.524-1.264,1.135-2.527,1.836-3.786c0.699-1.256,1.486-2.396,2.36-3.419c0.874-1.022,1.719-1.754,2.535-2.2
				C287.149,137.29,287.921,137.157,288.807,137.157 M288.807,132.985c-1.418,0-2.722,0.236-3.874,0.701l-0.226,0.091l-0.213,0.116
				c-1.278,0.698-2.49,1.728-3.706,3.15c-1.051,1.23-2.005,2.609-2.835,4.101c-0.768,1.378-1.455,2.796-2.045,4.217
				c-0.668,1.614-1.057,2.849-1.227,3.888l-0.007,0.042l-0.006,0.043c-0.288,2.029,0.29,3.974,1.627,5.475
				c0.967,1.095,2.233,1.944,3.754,2.513c1.252,0.475,2.646,0.759,4.124,0.837c0.318,0.017,0.628,0.026,0.926,0.026
				c1.118,0,2.098-0.117,2.994-0.356l0.291-0.078l0.277-0.119c1.23-0.527,2.487-1.47,3.956-2.966
				c1.175-1.197,2.301-2.524,3.351-3.945c1.03-1.395,1.952-2.817,2.738-4.228c0.986-1.774,1.488-3.237,1.564-4.571
				c0.132-1.2-0.05-3.155-1.92-5.128c-1.038-1.085-2.349-1.97-3.908-2.645c-1.479-0.632-3.046-1.01-4.671-1.129
				C289.427,132.996,289.112,132.985,288.807,132.985L288.807,132.985z"/>
		</g>
		<g>
			<path fill="#ED2576" d="M200.023,214.385c-0.993,0-1.972-0.088-2.911-0.26c-2.135-0.388-3.96-1.281-5.422-2.653
				c-1.597-1.502-2.406-3.703-2.406-6.541c0-1.135,0.346-3.279,3.042-9.842c1.934-4.705,4.513-10.322,7.666-16.696
				c3.171-6.407,6.837-13.3,10.895-20.486c4.088-7.246,8.41-14.294,12.845-20.949c4.456-6.688,8.975-12.751,13.433-18.023
				c4.554-5.389,8.91-9.331,12.947-11.714c1.312-0.859,3.142-1.549,5.517-2.061c1.896-0.405,3.775-0.61,5.591-0.61
				c0.355,0,0.708,0.008,1.06,0.023c2.291,0.103,4.33,0.631,6.062,1.571c2.145,1.167,3.277,3.029,3.277,5.385
				c0,1.547-0.51,3.493-1.548,5.898c3.365-4.351,6.703-8.381,9.974-12.04c5.017-5.613,9.596-9.66,13.608-12.029
				c1.309-0.858,3.141-1.549,5.518-2.061c1.894-0.404,3.775-0.609,5.596-0.609c0.353,0,0.703,0.008,1.053,0.022
				c2.291,0.103,4.33,0.631,6.063,1.571c2.145,1.167,3.277,3.028,3.277,5.385c0,2.244-1.18,5.238-3.711,9.425
				c-2.288,3.79-5.393,8.227-9.227,13.188c-3.809,4.925-8.213,10.331-13.09,16.066c-4.836,5.69-9.937,11.528-15.161,17.352
				c-5.222,5.818-10.506,11.483-15.707,16.838c-5.136,5.291-9.913,10.089-14.202,14.266c-1.176,1.875-2.152,3.61-2.902,5.16
				c-0.363,0.741-0.686,1.463-0.964,2.162c0.218-0.144,0.454-0.302,0.71-0.476c2.43-1.658,5.136-3.62,8.042-5.831
				c2.886-2.194,5.814-4.478,8.703-6.788c2.05-1.641,3.673-2.908,4.937-3.854c0.825-2.223,1.694-4.198,2.649-6.022
				c1.203-2.302,2.439-4.304,3.676-5.951c1.522-2.025,2.997-3.119,4.511-3.343l0.162-0.024l0.165,0.002
				c0.903,0.009,1.884,0.093,2.913,0.249c1.104,0.175,2.107,0.442,2.996,0.796c1.076,0.433,1.967,1.061,2.653,1.869
				c0.59,0.699,1.238,1.926,1.005,3.829c-0.146,1.174-0.703,2.768-1.752,5.019c-0.936,1.993-1.862,4.009-2.791,6.051
				c-0.524,1.151-1.032,2.287-1.518,3.396c0.839-0.621,1.758-1.343,2.747-2.163c1.771-1.469,3.737-3.225,5.843-5.217
				c2.105-1.993,4.21-4.172,6.255-6.479c0.43-0.487,0.854-0.937,1.292-1.364c0.192-0.351,0.383-0.69,0.598-1.032
				c1.459-2.329,3.129-4.508,4.963-6.477c1.837-1.968,3.729-3.671,5.625-5.066c2.034-1.497,3.777-2.426,5.328-2.842
				c0.778-0.209,1.622-0.315,2.508-0.315c0.614,0,1.263,0.051,1.929,0.151c1.583,0.245,3.046,0.729,4.356,1.441
				c1.423,0.78,2.561,1.834,3.388,3.137c0.889,1.408,1.259,2.996,1.103,4.726l-0.008,0.092l-0.017,0.09
				c-0.295,1.64-1.276,3.565-3.002,5.885c-1.559,2.096-3.307,4.223-5.195,6.323c-0.136,0.153-0.273,0.307-0.412,0.461
				c0.824-0.502,1.719-1.072,2.69-1.719c5.512-3.67,11.435-8.665,17.604-14.843c2.797-2.74,3.882-3.256,4.911-3.256
				c0.924,0,1.738,0.514,2.125,1.343c0.577,1.248,0.213,2.773-1.296,5.446c-1.065,2-2.609,4.462-4.564,7.271
				c-1.944,2.801-4.142,5.6-6.528,8.315c-2.39,2.715-4.923,5.258-7.53,7.559c-2.72,2.401-5.324,4.135-7.741,5.152
				c-1.28,0.535-2.8,0.805-4.52,0.805c-0.777,0-1.615-0.055-2.489-0.163c-2.681-0.327-5.304-1.156-7.796-2.463
				c-2.531-1.327-4.673-3.109-6.363-5.297c-0.105-0.137-0.208-0.276-0.307-0.417c-1.587,1.865-3.203,3.678-4.821,5.409
				c-2.053,2.192-3.996,4.155-5.776,5.835c-1.912,1.806-3.387,2.962-4.507,3.532l-0.119,0.061l-0.126,0.045
				c-1.251,0.447-2.658,0.673-4.183,0.673c-0.363,0-0.735-0.013-1.116-0.038c-1.928-0.124-3.817-0.594-5.612-1.398
				c-1.904-0.851-3.48-2.126-4.683-3.79c-0.382-0.528-0.696-1.094-0.941-1.696c-1.388,1.494-2.757,2.933-4.094,4.304
				c-2.209,2.265-4.419,4.289-6.568,6.017c-2.22,1.786-4.307,3.136-6.203,4.011c-1.722,0.72-3.633,1.264-5.749,1.646
				c-1.17,0.214-2.327,0.323-3.435,0.323c-0.992,0-1.971-0.087-2.909-0.26c-2.138-0.388-3.965-1.282-5.424-2.656
				c-0.767-0.718-1.352-1.6-1.753-2.637c-0.95,1.01-1.864,1.965-2.756,2.879c-2.216,2.271-4.426,4.295-6.568,6.017
				c-2.217,1.783-4.304,3.132-6.202,4.008c-1.708,0.717-3.619,1.262-5.747,1.649C202.286,214.276,201.13,214.385,200.023,214.385z
				 M209.264,194.126c-1.176,1.875-2.152,3.61-2.902,5.16c-0.364,0.742-0.686,1.464-0.964,2.163
				c0.218-0.143,0.455-0.301,0.711-0.476c2.432-1.66,5.139-3.623,8.042-5.833c2.866-2.178,5.794-4.461,8.703-6.787
				c2.359-1.888,4.223-3.335,5.549-4.31c2.268-4.667,5.169-10.104,8.629-16.173c2.434-4.27,5.112-8.794,8.005-13.522
				c-2.618,3.258-5.326,6.545-8.095,9.828c-4.618,5.469-9.375,10.853-14.14,16.002C218.089,185.271,213.535,189.963,209.264,194.126
				z M257.167,120.186c-1.069,1.283-2.248,2.804-3.526,4.548c-2.113,2.881-4.544,6.304-7.224,10.174
				c-2.658,3.835-5.354,7.841-8.013,11.906c-1.434,2.173-2.905,4.423-4.411,6.749c2.472-3.163,4.94-6.398,7.375-9.666
				c3.618-4.851,6.893-9.456,9.733-13.688C253.672,126.38,255.71,123.012,257.167,120.186z M299.986,106.581
				c-1.271,1.37-2.702,3.018-4.279,4.928c-2.603,3.159-5.496,6.843-8.6,10.948c-3.145,4.163-6.351,8.426-9.61,12.788
				c-1.05,1.435-2.12,2.904-3.211,4.407c2.047-2.421,4.131-4.898,6.236-7.416c4.39-5.249,8.37-10.216,11.83-14.765
				C295.52,113.309,298.084,109.65,299.986,106.581z"/>
			<path fill="#083F59" d="M304.765,92.773c0.322,0,0.644,0.007,0.963,0.021c1.98,0.089,3.698,0.529,5.159,1.321
				c1.456,0.792,2.186,1.976,2.186,3.551c0,1.803-1.137,4.586-3.41,8.346c-2.272,3.764-5.307,8.094-9.092,12.992
				c-3.79,4.901-8.132,10.232-13.028,15.991c-4.896,5.761-9.939,11.53-15.125,17.311c-5.188,5.781-10.404,11.376-15.65,16.777
				c-5.245,5.403-10.027,10.204-14.339,14.398c-1.284,2.033-2.333,3.893-3.146,5.573c-0.7,1.427-1.253,2.785-1.662,4.076
				c-0.409,1.293-0.322,2.087,0.262,2.379c0.044,0.031,0.106,0.047,0.185,0.047c0.539,0,1.875-0.729,4.012-2.185
				c2.447-1.67,5.158-3.633,8.131-5.895c2.972-2.259,5.885-4.534,8.743-6.819c2.321-1.857,4.093-3.234,5.378-4.182
				c0.807-2.236,1.712-4.369,2.753-6.357c1.163-2.226,2.331-4.114,3.496-5.667c1.165-1.55,2.214-2.394,3.148-2.532
				c0.813,0.008,1.688,0.084,2.622,0.226c0.932,0.148,1.776,0.369,2.536,0.672c0.757,0.304,1.369,0.732,1.836,1.282
				c0.465,0.551,0.639,1.293,0.524,2.225c-0.116,0.933-0.643,2.396-1.572,4.391c-0.937,1.996-1.867,4.02-2.799,6.07
				c-0.936,2.052-1.747,3.902-2.448,5.554c-0.699,1.653-0.816,2.584-0.351,2.796c0.047,0.018,0.102,0.026,0.166,0.026
				c0.417,0,1.207-0.377,2.371-1.129c1.339-0.865,2.911-2.046,4.72-3.544c1.806-1.498,3.787-3.266,5.946-5.308
				c2.156-2.041,4.284-4.245,6.382-6.61c0.499-0.566,0.965-1.046,1.41-1.47c0.217-0.399,0.433-0.798,0.686-1.201
				c1.399-2.233,2.974-4.287,4.723-6.165c1.749-1.874,3.525-3.477,5.334-4.807c1.806-1.329,3.349-2.164,4.633-2.508
				c0.606-0.163,1.263-0.244,1.969-0.244c0.513,0,1.052,0.042,1.616,0.128c1.337,0.207,2.562,0.608,3.672,1.211
				c1.104,0.605,1.98,1.411,2.623,2.422c0.639,1.012,0.9,2.152,0.786,3.42c-0.234,1.304-1.109,2.974-2.623,5.009
				c-1.517,2.04-3.206,4.098-5.072,6.173c-2.098,2.364-4.545,4.879-7.343,7.542c2.563-0.012,6.672-1.9,12.328-5.669
				c5.652-3.764,11.627-8.799,17.923-15.105c1.799-1.762,2.945-2.644,3.436-2.644c0.113,0,0.191,0.047,0.235,0.14
				c0.232,0.502-0.174,1.68-1.223,3.539c-1.05,1.969-2.535,4.338-4.46,7.104c-1.923,2.77-4.052,5.478-6.383,8.13
				c-2.333,2.65-4.78,5.109-7.344,7.372c-2.565,2.265-4.956,3.862-7.17,4.793c-1.024,0.428-2.261,0.642-3.711,0.642
				c-0.695,0-1.439-0.049-2.233-0.147c-2.447-0.298-4.809-1.047-7.082-2.24c-2.272-1.191-4.17-2.768-5.683-4.726
				c-0.714-0.925-1.2-1.923-1.475-2.99c-0.264,0.326-0.52,0.647-0.796,0.98c-1.982,2.389-3.994,4.674-6.031,6.852
				c-2.042,2.181-3.936,4.093-5.685,5.744c-1.748,1.651-3.09,2.716-4.021,3.19c-1.031,0.368-2.191,0.552-3.481,0.552
				c-0.317,0-0.644-0.011-0.978-0.033c-1.692-0.108-3.322-0.515-4.897-1.221c-1.572-0.702-2.856-1.739-3.845-3.108
				c-0.989-1.365-1.37-3.095-1.137-5.183c0.001-0.011,0.004-0.022,0.005-0.033c-0.181,0.2-0.349,0.394-0.53,0.595
				c-2.217,2.451-4.401,4.783-6.558,6.993c-2.157,2.212-4.283,4.161-6.382,5.847c-2.099,1.689-4.021,2.937-5.77,3.743
				c-1.517,0.633-3.266,1.13-5.247,1.488c-1.055,0.193-2.075,0.29-3.063,0.29c-0.87,0-1.714-0.075-2.532-0.226
				c-1.749-0.317-3.207-1.026-4.372-2.123c-1.166-1.093-1.749-2.766-1.749-5.02c0-0.224,0.044-0.516,0.108-0.837
				c-1.953,2.143-3.885,4.208-5.791,6.161c-2.158,2.211-4.284,4.161-6.382,5.848c-2.099,1.688-4.021,2.934-5.77,3.74
				c-1.517,0.635-3.267,1.13-5.247,1.491c-1.054,0.192-2.074,0.289-3.061,0.289c-0.87,0-1.715-0.075-2.534-0.226
				c-1.748-0.317-3.205-1.026-4.372-2.122c-1.164-1.095-1.748-2.768-1.748-5.021c0-1.35,0.961-4.366,2.885-9.049
				c1.923-4.679,4.458-10.2,7.606-16.563c3.147-6.359,6.759-13.155,10.841-20.386c4.079-7.229,8.333-14.167,12.765-20.818
				c4.428-6.647,8.857-12.592,13.29-17.833c4.428-5.24,8.567-8.993,12.415-11.265c1.164-0.76,2.797-1.366,4.896-1.818
				c1.759-0.375,3.475-0.563,5.151-0.563c0.324,0,0.647,0.007,0.969,0.021c1.98,0.088,3.699,0.528,5.157,1.32
				c1.457,0.793,2.187,1.977,2.187,3.552c0,1.803-0.935,4.473-2.797,8.013c-1.866,3.54-4.346,7.611-7.434,12.209
				c-3.089,4.603-6.702,9.566-10.84,14.898c-4.139,5.331-8.51,10.725-13.114,16.182c-4.607,5.456-9.298,10.767-14.077,15.931
				c-4.78,5.167-9.327,9.848-13.639,14.043c-1.284,2.033-2.333,3.892-3.147,5.572c-0.7,1.428-1.253,2.785-1.662,4.077
				c-0.409,1.29-0.322,2.086,0.262,2.379c0.045,0.031,0.106,0.047,0.186,0.047c0.54,0,1.876-0.729,4.012-2.184
				c2.448-1.671,5.159-3.635,8.131-5.897c2.972-2.258,5.885-4.533,8.743-6.818c2.655-2.125,4.6-3.626,5.896-4.561
				c2.28-4.729,5.205-10.228,8.791-16.518c3.788-6.646,8.102-13.797,12.941-21.456c4.836-7.656,9.793-14.98,14.863-21.972
				c5.07-6.987,10.054-13.22,14.95-18.699c4.896-5.477,9.266-9.351,13.114-11.623c1.162-0.76,2.797-1.366,4.896-1.818
				C301.368,92.959,303.086,92.773,304.765,92.773 M250.298,169.718c1.513-1.529,3.991-4.165,7.431-7.903
				c3.437-3.734,7.257-8.051,11.454-12.95c4.195-4.895,8.507-9.991,12.939-15.291c4.429-5.296,8.393-10.243,11.891-14.84
				c3.496-4.595,6.234-8.537,8.22-11.829c1.979-3.289,2.62-5.29,1.922-6.005c-0.095-0.088-0.217-0.133-0.365-0.133
				c-0.589,0-1.604,0.688-3.045,2.061c-1.81,1.725-4.022,4.175-6.646,7.353c-2.621,3.181-5.508,6.854-8.655,11.018
				c-3.146,4.166-6.355,8.433-9.617,12.797C268.247,144.36,259.739,156.267,250.298,169.718 M215.5,179.042
				c1.513-1.53,3.759-4.075,6.731-7.633c2.974-3.554,6.266-7.589,9.881-12.104c3.612-4.517,7.256-9.234,10.928-14.162
				c3.672-4.924,6.934-9.513,9.792-13.771c2.855-4.254,5.04-7.908,6.558-10.962c1.513-3.049,1.923-4.933,1.222-5.647
				c-0.098-0.091-0.219-0.137-0.364-0.137c-0.552,0-1.449,0.657-2.694,1.971c-1.574,1.661-3.439,3.961-5.596,6.904
				c-2.157,2.941-4.576,6.351-7.255,10.22c-2.684,3.872-5.365,7.855-8.044,11.952C230.246,155.387,223.194,166.508,215.5,179.042
				 M302.577,175.808c0.7-0.524,1.836-1.616,3.411-3.278c1.573-1.658,3.147-3.433,4.721-5.319c1.574-1.883,2.885-3.56,3.934-5.022
				c1.049-1.464,1.399-2.318,1.049-2.562c-0.065-0.03-0.143-0.045-0.232-0.045c-0.549,0-1.55,0.557-3.002,1.672
				c-1.692,1.298-3.352,2.842-4.983,4.63c-1.633,1.788-3.003,3.648-4.109,5.577C302.257,173.39,301.993,174.84,302.577,175.808
				 M304.765,88.602c-1.967,0-3.995,0.22-6.028,0.655c-2.592,0.558-4.626,1.327-6.221,2.35c-4.236,2.517-8.826,6.57-14.028,12.389
				c-1.638,1.833-3.294,3.759-4.96,5.77c-0.479-2.321-1.925-4.221-4.188-5.454c-2.016-1.094-4.357-1.707-6.966-1.823
				c-0.386-0.017-0.769-0.025-1.154-0.025c-1.961,0-3.987,0.22-6.022,0.655c-2.591,0.558-4.625,1.327-6.221,2.35
				c-4.275,2.54-8.661,6.506-13.405,12.12c-4.508,5.331-9.076,11.459-13.575,18.213c-4.463,6.697-8.812,13.79-12.926,21.081
				c-4.076,7.218-7.759,14.144-10.947,20.585c-3.175,6.417-5.775,12.079-7.727,16.829c-2.818,6.86-3.198,9.226-3.198,10.635
				c0,3.437,1.03,6.147,3.061,8.059c1.763,1.655,3.944,2.727,6.485,3.188c1.054,0.193,2.16,0.293,3.279,0.293
				c1.232,0,2.514-0.12,3.811-0.357c2.274-0.415,4.33-1.003,6.107-1.746l0.07-0.029l0.068-0.031c2.083-0.961,4.253-2.36,6.637-4.278
				c2.206-1.773,4.479-3.854,6.753-6.184c0.293-0.301,0.589-0.605,0.887-0.915c0.22,0.259,0.456,0.506,0.707,0.741
				c1.751,1.648,3.933,2.722,6.479,3.184c1.053,0.193,2.159,0.292,3.277,0.292c1.233,0,2.517-0.121,3.814-0.358
				c2.255-0.408,4.311-0.995,6.102-1.742l0.071-0.029l0.07-0.033c2.08-0.959,4.252-2.36,6.639-4.281
				c2.212-1.778,4.484-3.859,6.752-6.184c0.738-0.756,1.485-1.534,2.24-2.329c1.361,1.713,3.088,3.046,5.137,3.961
				c2.018,0.905,4.149,1.435,6.332,1.575c0.413,0.027,0.835,0.042,1.244,0.042c1.764,0,3.407-0.268,4.885-0.795l0.251-0.089
				l0.237-0.121c1.319-0.671,2.906-1.903,4.994-3.875c1.811-1.708,3.784-3.702,5.865-5.925c1.093-1.168,2.184-2.373,3.267-3.606
				c1.63,1.735,3.553,3.188,5.736,4.333c2.714,1.424,5.579,2.328,8.514,2.686c0.952,0.118,1.876,0.178,2.738,0.178
				c1.997,0,3.787-0.324,5.318-0.964c2.673-1.125,5.393-2.927,8.323-5.516c2.672-2.357,5.268-4.963,7.714-7.742
				c2.441-2.777,4.688-5.639,6.679-8.507c1.985-2.853,3.563-5.369,4.69-7.477c1.261-2.238,2.494-4.827,1.352-7.297
				c-0.74-1.584-2.278-2.56-4.021-2.56c-2.061,0-3.757,1.292-6.354,3.835c-3.079,3.084-6.084,5.86-8.999,8.316
				c0.397-0.89,0.664-1.732,0.811-2.547l0.032-0.181l0.017-0.183c0.198-2.197-0.277-4.223-1.413-6.021
				c-1.024-1.613-2.417-2.906-4.146-3.854c-1.534-0.834-3.226-1.396-5.04-1.676c-0.782-0.118-1.536-0.177-2.253-0.177
				c-1.068,0-2.095,0.13-3.05,0.386c-1.806,0.484-3.776,1.523-6.024,3.177c-1.999,1.47-3.988,3.26-5.911,5.32
				c-1.927,2.069-3.678,4.354-5.208,6.796c-0.188,0.301-0.357,0.592-0.511,0.868c-0.396,0.397-0.785,0.813-1.179,1.259
				c-1.997,2.252-4.06,4.389-6.12,6.34c-0.484,0.458-0.96,0.902-1.429,1.334c0.157-0.337,0.312-0.669,0.467-0.998
				c1.164-2.497,1.76-4.236,1.936-5.647c0.325-2.657-0.622-4.418-1.475-5.429c-0.918-1.08-2.082-1.905-3.47-2.463
				c-1.043-0.416-2.195-0.724-3.438-0.921c-1.155-0.175-2.233-0.267-3.233-0.277l-0.329-0.003l-0.326,0.048
				c-0.014,0.002-0.026,0.004-0.04,0.006c0.816-0.899,1.632-1.802,2.445-2.708c5.237-5.838,10.351-11.691,15.199-17.395
				c4.896-5.759,9.321-11.19,13.149-16.141c3.884-5.025,7.033-9.529,9.363-13.388c2.735-4.523,4.011-7.861,4.011-10.501
				c0-3.123-1.55-5.685-4.364-7.216c-2.019-1.094-4.36-1.707-6.966-1.824C305.528,88.609,305.146,88.602,304.765,88.602
				L304.765,88.602z M247.754,184.103c3.706-3.65,7.732-7.713,12.006-12.116c1.193-1.229,2.391-2.473,3.592-3.732
				c-0.898,1.721-1.723,3.57-2.504,5.618c-1.203,0.913-2.688,2.076-4.501,3.527C253.494,179.681,250.604,181.936,247.754,184.103
				L247.754,184.103z M212.913,193.46c3.649-3.628,7.479-7.608,11.419-11.866c2.325-2.513,4.647-5.08,6.953-7.687
				c-1.704,3.148-3.219,6.077-4.534,8.762c-1.311,0.977-3.025,2.313-5.202,4.055C218.662,189.033,215.756,191.299,212.913,193.46
				L212.913,193.46z"/>
		</g>
		<g>
			<path fill="#ED2576" d="M340.474,151.602c-0.365,0-0.732-0.04-1.094-0.118c-0.85-0.182-3.604-1.095-3.021-5.168
				c0.1-0.616,0.364-1.713,1.588-5.116c0.901-2.501,1.914-5.103,3.013-7.735c1.117-2.69,2.325-5.232,3.589-7.549
				c1.474-2.699,2.675-4.199,3.894-4.863l0.106-0.058l0.111-0.045c0.903-0.365,1.943-0.55,3.089-0.55
				c0.261,0,0.529,0.009,0.806,0.029c1.4,0.102,2.744,0.425,4.001,0.962c1.31,0.564,2.392,1.291,3.223,2.162
				c1.31,1.377,1.48,2.655,1.358,3.542c-0.048,0.844-0.437,2.108-2.344,5.025c-1.377,2.102-2.998,4.362-4.818,6.72
				c-1.861,2.411-3.678,4.652-5.396,6.662c-1.824,2.134-3.086,3.512-3.855,4.211C343.408,150.957,341.969,151.602,340.474,151.602
				L340.474,151.602z"/>
			<path fill="#083F59" d="M351.749,122.486c0.214,0,0.435,0.008,0.662,0.023c1.165,0.084,2.273,0.35,3.324,0.799
				c1.048,0.452,1.893,1.012,2.534,1.684c0.641,0.673,0.904,1.308,0.787,1.901c0,0.676-0.671,2.038-2.01,4.086
				c-1.342,2.048-2.914,4.244-4.723,6.586s-3.582,4.537-5.331,6.58c-1.75,2.048-2.974,3.389-3.673,4.023
				c-0.949,0.897-1.898,1.347-2.847,1.347c-0.217,0-0.434-0.024-0.65-0.071c-1.167-0.249-1.635-1.193-1.399-2.834
				c0.115-0.707,0.612-2.275,1.486-4.706c0.875-2.43,1.863-4.975,2.975-7.638c1.104-2.661,2.271-5.11,3.495-7.354
				c1.225-2.243,2.243-3.584,3.061-4.03C350.096,122.62,350.866,122.486,351.749,122.486 M351.749,118.315
				c-1.414,0-2.717,0.236-3.869,0.701l-0.224,0.09l-0.212,0.115c-1.613,0.879-3.026,2.582-4.726,5.694
				c-1.3,2.384-2.54,4.992-3.687,7.754c-1.108,2.656-2.135,5.291-3.047,7.823c-1.274,3.544-1.563,4.743-1.679,5.448l-0.006,0.039
				l-0.006,0.04c-0.669,4.664,2.091,6.958,4.658,7.506c0.49,0.107,1.007,0.163,1.521,0.163c1.399,0,3.519-0.428,5.682-2.458
				c0.54-0.494,1.549-1.495,4.009-4.374c1.74-2.033,3.579-4.302,5.462-6.741c1.853-2.4,3.505-4.704,4.91-6.85
				c1.807-2.763,2.567-4.445,2.678-5.976c0.142-1.203-0.026-3.179-1.922-5.172c-1.03-1.079-2.343-1.966-3.905-2.639
				c-1.481-0.633-3.05-1.012-4.674-1.129C352.373,118.326,352.057,118.315,351.749,118.315L351.749,118.315z"/>
		</g>
		<g>
			<path fill="#ED2576" d="M357.232,180.458c-2.159-0.072-4.129-0.551-5.851-1.423c-1.716-0.865-3.153-2.007-4.269-3.396
				c-1.234-1.529-1.861-3.122-1.861-4.73c0-1.145,0.396-2.437,1.212-3.95c0.712-1.312,1.646-2.654,2.78-3.993
				c1.111-1.312,2.348-2.771,3.675-3.997c0.293-0.272,0.587,0.03,0.883-0.97c-0.006,0-0.013,0-0.019,0
				c-2.014,0-3.704-0.564-4.888-1.959c-1.411-1.589-2.026-3.59-1.799-6.083c0.199-2.148,0.824-4.284,1.859-6.438
				c1.025-2.125,2.349-4.048,3.936-5.758c1.646-1.778,3.325-3.032,4.992-3.748c0.945-0.367,1.868-0.534,2.813-0.534
				c0.43,0,0.871,0.039,1.312,0.11c1.288,0.208,2.493,0.627,3.583,1.245c1.109,0.634,2.047,1.438,2.796,2.39
				c0.877,1.121,1.32,2.327,1.32,3.588c0,1.906-0.762,3.7-2.267,5.344c0.229-0.039,0.457-0.073,0.683-0.104
				c1.323-0.181,2.584-0.273,3.75-0.273c0.899,0,1.768,0.054,2.58,0.162c2.088,0.275,3.808,0.986,5.111,2.115
				c1.446,1.258,2.209,3.008,2.209,5.063c0,1.766-0.543,3.879-1.66,6.462c-1.038,2.401-2.394,4.85-4.03,7.279
				c-1.627,2.42-3.527,4.766-5.647,6.97c-2.191,2.283-4.35,3.973-6.415,5.023c-2.161,1.072-4.298,1.611-6.369,1.611
				C357.651,180.465,357.372,180.462,357.232,180.458z M363.758,156.143c0.063,0.229,0.101,0.46,0.116,0.689
				c0.2-0.331,0.365-0.623,0.502-0.879C364.174,156.016,363.968,156.079,363.758,156.143z"/>
			<path fill="#083F59" d="M360.697,135.571c0.321,0,0.647,0.027,0.98,0.08c1.048,0.169,2.01,0.503,2.887,1
				c0.872,0.499,1.6,1.121,2.184,1.863c0.584,0.747,0.874,1.513,0.874,2.299c0,1.579-0.758,3.075-2.272,4.493
				c-1.516,1.419-2.798,3.003-3.846,4.747c2.446-0.993,4.747-1.637,6.906-1.936c1.23-0.168,2.386-0.253,3.465-0.253
				c0.811,0,1.58,0.048,2.306,0.144c1.689,0.222,3.028,0.766,4.02,1.624c0.991,0.862,1.488,2.024,1.488,3.487
				c0,1.464-0.497,3.342-1.488,5.634c-0.991,2.292-2.273,4.607-3.846,6.941c-1.572,2.338-3.381,4.568-5.421,6.689
				c-2.039,2.124-3.994,3.662-5.857,4.61c-1.859,0.922-3.667,1.384-5.425,1.384c-0.115,0-0.231-0.002-0.347-0.006
				c-1.865-0.062-3.524-0.462-4.98-1.199c-1.458-0.734-2.653-1.681-3.585-2.841c-0.934-1.157-1.401-2.297-1.401-3.424
				c0-0.788,0.323-1.775,0.962-2.96c0.644-1.185,1.488-2.396,2.536-3.635c1.049-1.237,2.214-2.453,3.498-3.639
				c1.282-1.188,2.563-2.234,3.846-3.142c1.301-0.939,2.249-1.409,2.848-1.409c0.312,0,0.53,0.129,0.65,0.387
				c0.35,0.75-0.06,1.903-1.225,3.452c-0.351,0.432-0.904,1.172-1.662,2.219c-0.758,1.048-1.516,2.096-2.271,3.144
				c-0.761,1.047-1.398,2.037-1.926,2.963c-0.524,0.93-0.611,1.515-0.261,1.76c0.104,0.053,0.223,0.079,0.355,0.079
				c0.605,0,1.507-0.552,2.705-1.66c1.456-1.344,2.911-2.975,4.37-4.887c1.455-1.911,2.737-3.772,3.848-5.592
				c1.105-1.815,1.6-3.1,1.486-3.86c-0.147-0.454-0.522-0.682-1.128-0.682c-0.359,0-0.8,0.081-1.322,0.241
				c-1.396,0.432-2.971,0.909-4.72,1.433c-1.749,0.527-3.525,0.889-5.334,1.092c-0.281,0.032-0.552,0.047-0.812,0.047
				c-1.412,0-2.509-0.466-3.298-1.396c-1.048-1.181-1.485-2.726-1.312-4.63c0.177-1.906,0.73-3.828,1.662-5.767
				c0.935-1.938,2.127-3.693,3.585-5.266c1.456-1.573,2.884-2.658,4.285-3.26C359.342,135.695,360.006,135.571,360.697,135.571
				 M360.697,131.4c-1.204,0-2.38,0.219-3.496,0.65l-0.07,0.027l-0.07,0.03c-1.964,0.843-3.828,2.236-5.701,4.259
				c-1.726,1.86-3.166,3.977-4.28,6.287c-1.146,2.384-1.837,4.802-2.059,7.194c-0.35,3.824,1.059,6.32,2.314,7.75
				c0.539,0.627,1.287,1.309,2.29,1.846c-0.69,0.712-1.349,1.438-1.971,2.172c-1.228,1.45-2.243,2.91-3.021,4.341
				c-0.989,1.837-1.468,3.453-1.468,4.951c0,2.098,0.783,4.131,2.327,6.044c1.297,1.614,2.966,2.945,4.954,3.946
				c1.987,1.006,4.25,1.56,6.718,1.643c0.158,0.006,0.322,0.008,0.486,0.008c2.396,0,4.846-0.612,7.278-1.819
				c2.311-1.175,4.658-3.005,7.013-5.458c2.201-2.289,4.179-4.729,5.874-7.25c1.705-2.533,3.123-5.095,4.213-7.613
				c1.231-2.85,1.831-5.234,1.831-7.29c0-2.677-1.011-4.971-2.922-6.634c-1.625-1.407-3.713-2.284-6.214-2.613
				c-0.899-0.119-1.859-0.18-2.85-0.18c-0.185,0-0.371,0.002-0.56,0.006c0.364-1.083,0.479-2.071,0.479-2.886
				c0-1.714-0.609-3.397-1.76-4.87c-0.923-1.172-2.063-2.15-3.397-2.914c-1.323-0.749-2.762-1.25-4.293-1.498
				C361.79,131.444,361.238,131.4,360.697,131.4L360.697,131.4z"/>
		</g>
	</g>
</g>
</svg>
