<?xml version="1.0" encoding="utf-8"?>
<!-- Generator: Adobe Illustrator 20.1.0, SVG Export Plug-In . SVG Version: 6.00 Build 0)  -->
<svg version="1.1" id="Layer_1" xmlns="http://www.w3.org/2000/svg" xmlns:xlink="http://www.w3.org/1999/xlink" x="0px" y="0px"
	 viewBox="0 0 495 521" style="enable-background:new 0 0 495 521;" xml:space="preserve">
<style type="text/css">
	.st0{fill:#125680;}
	.st1{fill:#1B6B94;}
	.st2{fill:#0B3F59;}
	.st3{fill:#46C2C6;}
	.st4{fill:#053247;}
	.st5{fill:#ED2576;}
	.st6{fill:#083F59;}
</style>
<g id="pinkCircle">
	<circle class="st0" cx="250.2" cy="301" r="150.9"/>
</g>
<g id="innerCircle">
	<path class="st1" d="M250.2,163.4c-76,0-137.6,61.6-137.6,137.6c0,76,61.6,137.6,137.6,137.6S387.8,377,387.8,301
		C387.8,225,326.2,163.4,250.2,163.4z M250.2,425.8c-68.9,0-124.8-55.9-124.8-124.8s55.9-124.8,124.8-124.8S374.9,232.1,374.9,301
		S319.1,425.8,250.2,425.8z"/>
</g>
<g id="board">
	<path class="st2" d="M189.2,330c0,0-75.1-110.9,5.4-255.6c0,0,5.8-12,11.8,0c0,0,80.7,120.8,6,255.6l-11.6-20.7L189.2,330z"/>
	<path class="st0" d="M202,82.5c0,0-26.1,45.6-33.7,91.3C168.2,170.8,170.3,121.3,202,82.5z"/>
</g>
<g id="Outback">
	<g>
		<g>
			<path class="st2" d="M92.5,288.5c11-2.9,18.9-1.4,15.5,21.3c-3.2,21.4-11.5,24.7-22.9,27.8s-18.9,1.5-15.6-20.6
				C72.9,294.3,81.8,291.4,92.5,288.5z M86.7,326.1c5.5-1.5,7.3-4.2,8.9-14.5c1.7-11.3,0.9-13.1-4.9-11.5c-5.6,1.5-7.2,3.4-9,15.2
				C80.3,325.4,80.5,327.8,86.7,326.1z"/>
			<path class="st2" d="M115.9,282.6l12.3-3.3l-4.1,27.3c-1,6.2-1.4,10,4.6,8.4c5.7-1.5,6.4-5.6,7.3-11.6l4.1-27.3l12.4-3.3
				l-3.8,29.1c-3.2,21.4-14.1,22.5-21.8,24.6c-8.6,2.3-18.4,3.5-15-18.5L115.9,282.6z"/>
			<path class="st2" d="M155.9,271.8l36.1-9.7l-1.8,11.5l-12.1,3.2l-5.6,37l-12.3,3.3l5.6-37l-11.7,3.1L155.9,271.8z"/>
			<path class="st2" d="M195.4,261.2L215,256c9.9-2.7,13.2,2.6,12,10.8c-0.6,4.1-3.7,9-8.3,10.6c4.6-0.5,7.2,3.7,6.4,10
				c-1.7,12.5-7.2,14.4-17,17l-19.9,5.3L195.4,261.2z M209,293.7c2.4-0.6,3.4-2.6,3.8-5.5c0.4-2.5,0.1-4.6-2.4-3.9l-6.9,1.9
				l-1.4,9.4L209,293.7z M211.3,274.3c1.9-0.5,3.1-2.3,3.4-4.1c0.4-2.9-0.9-3.4-2.3-3l-6.3,1.7L205,276L211.3,274.3z"/>
			<path class="st2" d="M246.3,247.6l14.6-3.9l6.7,44.7l-12.6,3.4l-1.3-7.8l-11.9,3.2l-3.6,9.1l-13.7,3.7L246.3,247.6z M252.8,273.8
				l-1.5-12.1l-5.2,13.9L252.8,273.8z"/>
			<path class="st2" d="M290.9,235.2c9.2-2.5,11.3-2.5,16.4-1.9l-1.5,10c-0.1,0-6.2,0.6-12.8,2.3c-5.3,1.4-7.6,1.8-9.6,15.3
				c-1.7,10.9-0.8,12.8,5.6,11.1c6.7-1.8,13-4.1,13-4.1l-1.5,10c-4.2,2.8-7.7,4.3-17.1,6.6c-11.7,2.9-14.7-6.2-12.3-22.4
				C273.3,246.7,278.2,238.6,290.9,235.2z"/>
			<path class="st2" d="M311.6,230.1l11.7-3.1l-2.9,19.1l1.9-0.5l12.4-21.6l14.8-4l-16.5,28.8l9.1,19.7l-13.9,3.7l-6.4-16.1
				l-3.1,0.8l-2.8,18.5l-11.8,3.2L311.6,230.1z"/>
		</g>
	</g>
	<g>
		<path class="st3" d="M87.8,287c11-2.9,18.9-1.4,15.5,21.3c-3.2,21.4-11.5,24.7-22.9,27.8s-18.9,1.5-15.6-20.6
			C68.2,292.7,77.1,289.8,87.8,287z M82.1,324.5c5.5-1.5,7.3-4.2,8.9-14.5c1.7-11.3,0.9-13.1-4.9-11.5c-5.6,1.5-7.2,3.4-9,15.2
			C75.6,323.9,75.9,326.2,82.1,324.5z"/>
		<path class="st3" d="M111.2,281l12.3-3.3l-4.1,27.3c-1,6.2-1.4,10,4.6,8.4c5.7-1.5,6.4-5.6,7.3-11.6l4.1-27.3l12.4-3.3l-3.8,29.1
			c-3.2,21.4-14.1,22.5-21.8,24.6c-8.6,2.3-18.4,3.5-15-18.5L111.2,281z"/>
		<path class="st3" d="M151.3,270.3l36.1-9.7l-1.8,11.5l-12.1,3.2l-5.6,37l-12.3,3.3l5.6-37l-11.7,3.1L151.3,270.3z"/>
		<path class="st3" d="M190.8,259.7l19.6-5.2c9.9-2.7,13.2,2.6,12,10.8c-0.6,4.1-3.7,9-8.3,10.6c4.6-0.5,7.2,3.7,6.4,10
			c-1.7,12.5-7.2,14.4-17,17l-19.9,5.3L190.8,259.7z M204.3,292.2c2.4-0.6,3.4-2.6,3.8-5.5c0.4-2.5,0.1-4.6-2.4-3.9l-6.9,1.9
			l-1.4,9.4L204.3,292.2z M206.7,272.7c1.9-0.5,3.1-2.3,3.4-4.1c0.4-2.9-0.9-3.4-2.3-3l-6.3,1.7l-1.1,7.2L206.7,272.7z"/>
		<path class="st3" d="M241.6,246.1l14.6-3.9l6.7,44.7l-12.6,3.4l-1.3-7.8l-11.9,3.2l-3.6,9.1l-13.7,3.7L241.6,246.1z M248.1,272.2
			l-1.5-12.1l-5.2,13.9L248.1,272.2z"/>
		<path class="st3" d="M286.2,233.6c9.2-2.5,11.3-2.5,16.4-1.9l-1.5,10c-0.1,0-6.2,0.6-12.8,2.3c-5.3,1.4-7.6,1.8-9.6,15.3
			c-1.7,10.9-0.8,12.8,5.6,11.1c6.7-1.8,13-4.1,13-4.1l-1.5,10c-4.2,2.8-7.7,4.3-17.1,6.6c-11.7,2.9-14.7-6.2-12.3-22.4
			C268.7,245.2,273.6,237,286.2,233.6z"/>
		<path class="st3" d="M307,228.6l11.7-3.1l-2.9,19.1l1.9-0.5l12.4-21.6l14.8-4l-16.5,28.8l9.1,19.7l-13.9,3.7l-6.4-16.1l-3.1,0.8
			l-2.8,18.5l-11.8,3.2L307,228.6z"/>
	</g>
</g>
<g id="Surf">
	<g>
		<path class="st4" d="M150.6,382.9c3.9-0.6,15.3-3,24.5-5.5c4.3-1.1,6.1-2.7,6.6-5.8l0.2-1.6c0.5-3-0.2-4.3-4.6-3.1l-7,1.9
			c-19,5.1-18.2-12-17.6-16.8l1.1-8.6c2-14.9,11.8-19.8,22.9-23c14.7-4.3,22.4-5.4,29.3-4.6l-2.4,15.6c-6.3,1-16.2,3.3-22.7,5.1
			c-5.4,1.4-7.4,2.2-8,6.5l-0.2,1.1c-0.5,3.2-0.1,4.8,5.3,3.4l7.4-2c15.1-4,16.9,8.6,15.9,16.8l-0.2,6.3
			c-0.7,18.9-14.8,23.2-24.6,25.9c-14.4,3.9-18.8,5-28.2,4.2L150.6,382.9z"/>
		<path class="st4" d="M215.8,310.3l19.3-5.2l-6.5,42.7c-1.5,9.7-2.2,15.6,7.3,13.1c8.8-2.4,10-8.7,11.4-18.1l6.5-42.7l19.4-5.2
			l-6,45.5c-5.1,33.4-22.1,35.2-34.1,38.4c-13.5,3.6-28.7,5.5-23.4-29L215.8,310.3z"/>
		<path class="st4" d="M280.7,292.9l30.5-8.2c12.9-3.5,21.5,2,18.6,20.9c-2.8,18-10.1,21.5-14.2,23.2l10.1,24.8l-22,5.9l-7.5-24.7
			l-3.6,0.6l-4.3,28.3l-19.3,5.2L280.7,292.9z M303.8,317.8c5.1-1.4,5.9-4.2,6.7-9.5c0.7-4.6,0.1-7-4.3-5.8l-8.6,2.3l-2.4,15.3
			L303.8,317.8z"/>
		<path class="st4" d="M337,295.7c2.3-14.9,12.4-21.2,21.4-23.6c0,0,18.8-5,30.2-6.5l-2.5,16.9l-24.5,6.6c-5.2,1.4-5.7,4.4-6.1,7.2
			l-0.7,4.6l24.5-5.5l-2.5,16.7l-24.9,7.6l-4.3,28.2l-19.3,5.2L337,295.7z"/>
	</g>
	<g>
		<path class="st5" d="M147.5,380.6c3.9-0.6,15.3-3,24.5-5.5c4.3-1.1,6.1-2.7,6.6-5.8l0.2-1.6c0.5-3-0.2-4.3-4.6-3.1l-7,1.9
			c-19,5.1-18.2-12-17.6-16.8l1.1-8.6c2-14.9,11.8-19.8,22.9-23c14.7-4.3,22.4-5.4,29.3-4.6l-2.4,15.6c-6.3,1-16.2,3.3-22.7,5.1
			c-5.4,1.4-7.4,2.2-8,6.5l-0.2,1.1c-0.5,3.2-0.1,4.8,5.3,3.4l7.4-2c15.1-4,16.9,8.6,15.9,16.8l-0.2,6.3
			c-0.7,18.9-14.8,23.2-24.6,25.9c-14.4,3.9-18.8,5-28.2,4.2L147.5,380.6z"/>
		<path class="st5" d="M212.7,308l19.3-5.2l-6.5,42.7c-1.5,9.7-2.2,15.6,7.3,13.1c8.8-2.4,10-8.7,11.4-18.1l6.5-42.7l19.4-5.2
			l-6,45.5c-5.1,33.4-22.1,35.2-34.1,38.4c-13.5,3.6-28.7,5.5-23.4-29L212.7,308z"/>
		<path class="st5" d="M277.6,290.6l30.5-8.2c12.9-3.5,21.5,2,18.6,20.9c-2.8,18-10.1,21.5-14.2,23.2l10.1,24.8l-22,5.9l-7.5-24.7
			l-3.6,0.6l-4.3,28.3l-19.3,5.2L277.6,290.6z M300.7,315.5c5.1-1.4,5.9-4.2,6.7-9.5c0.7-4.6,0.1-7-4.3-5.8l-8.6,2.3l-2.4,15.3
			L300.7,315.5z"/>
		<path class="st5" d="M333.9,293.4c2.3-14.9,12.4-21.2,21.4-23.6c0,0,18.8-5,30.2-6.5l-2.5,16.9l-24.5,6.6
			c-5.2,1.4-5.7,4.4-6.1,7.2l-0.7,4.6l24.5-5.5l-2.5,16.7l-24.9,7.6l-4.3,28.2l-19.3,5.2L333.9,293.4z"/>
	</g>
</g>
<g id="Shack">
	<g>
		<path class="st2" d="M233.5,422c2.5-0.4,9.8-1.9,15.7-3.5c2.7-0.7,3.9-1.7,4.2-3.7l0.1-1.1c0.3-1.9-0.1-2.8-2.9-2l-4.4,1.2
			c-12.1,3.3-11.6-7.7-11.3-10.8l0.7-5.5c1.3-9.6,7.6-12.6,14.7-14.7c9.4-2.8,14.3-3.5,18.8-2.9l-1.5,10c-4,0.6-10.4,2.1-14.6,3.3
			c-3.4,0.9-4.7,1.4-5.1,4.2l-0.1,0.7c-0.3,2.1-0.1,3.1,3.4,2.1l4.7-1.3c9.7-2.6,10.8,5.5,10.2,10.8l-0.1,4
			c-0.4,12.1-9.5,14.9-15.8,16.6c-9.2,2.5-12,3.2-18.1,2.7L233.5,422z"/>
		<path class="st2" d="M275.4,375.5l12.3-3.3l-2.9,19.3l10.8-2.9l2.9-19.3l12.3-3.3l-7.4,48.5l-12.3,3.3l2.7-17.7l-10.8,2.9
			l-2.7,17.7l-12.3,3.3L275.4,375.5z"/>
		<path class="st2" d="M329.1,361.1l14.6-3.9l6.7,44.7l-12.6,3.4l-1.3-7.8l-11.9,3.2l-3.6,9.1l-13.7,3.7L329.1,361.1z M335.6,387.3
			l-1.5-12.1l-5.2,13.9L335.6,387.3z"/>
		<path class="st2" d="M373.7,348.7c9.2-2.5,11.3-2.5,16.4-1.9l-1.5,10c-0.1,0-6.2,0.6-12.8,2.3c-5.3,1.4-7.6,1.8-9.6,15.3
			c-1.7,10.9-0.8,12.8,5.6,11.1c6.7-1.8,13-4.1,13-4.1l-1.5,10c-4.2,2.8-7.7,4.3-17.1,6.6c-11.7,2.9-14.7-6.2-12.3-22.4
			C356.2,360.2,361,352.1,373.7,348.7z"/>
		<path class="st2" d="M394.5,343.6l11.7-3.1l-2.9,19.1l1.9-0.5l12.4-21.6l14.8-4l-16.5,28.8L425,382l-13.9,3.7l-6.4-16.1l-3.1,0.8
			l-2.8,18.5l-11.8,3.2L394.5,343.6z"/>
	</g>
	<g>
		<g>
			<path class="st3" d="M229.7,419.7c2.5-0.4,9.8-1.9,15.7-3.5c2.7-0.7,3.9-1.7,4.2-3.7l0.1-1.1c0.3-1.9-0.1-2.8-2.9-2l-4.4,1.2
				c-12.1,3.3-11.6-7.7-11.3-10.8l0.7-5.5c1.3-9.6,7.6-12.6,14.7-14.7c9.4-2.8,14.3-3.5,18.8-2.9l-1.5,10c-4,0.6-10.4,2.1-14.6,3.3
				c-3.4,0.9-4.7,1.4-5.1,4.2l-0.1,0.7c-0.3,2.1-0.1,3.1,3.4,2.1l4.7-1.3c9.7-2.6,10.8,5.5,10.2,10.8l-0.1,4
				c-0.4,12.1-9.5,14.9-15.8,16.6c-9.2,2.5-12,3.2-18.1,2.7L229.7,419.7z"/>
			<path class="st3" d="M271.6,373.2l12.3-3.3l-2.9,19.3l10.8-2.9l2.9-19.3l12.3-3.3l-7.4,48.5l-12.3,3.3l2.7-17.7l-10.8,2.9
				l-2.7,17.7l-12.3,3.3L271.6,373.2z"/>
			<path class="st3" d="M325.3,358.8l14.6-3.9l6.7,44.7l-12.6,3.4l-1.3-7.8l-11.9,3.2l-3.6,9.1l-13.7,3.7L325.3,358.8z M331.7,385
				l-1.5-12.1l-5.2,13.9L331.7,385z"/>
			<path class="st3" d="M369.8,346.3c9.2-2.5,11.3-2.5,16.4-1.9l-1.5,10c-0.1,0-6.2,0.6-12.8,2.3c-5.3,1.4-7.6,1.8-9.6,15.3
				c-1.7,10.9-0.8,12.8,5.6,11.1c6.7-1.8,13-4.1,13-4.1l-1.5,10c-4.2,2.8-7.7,4.3-17.1,6.6c-11.7,2.9-14.7-6.2-12.3-22.4
				C352.3,357.9,357.2,349.7,369.8,346.3z"/>
			<path class="st3" d="M390.6,341.3l11.7-3.1l-2.9,19.1l1.9-0.5l12.4-21.6l14.8-4L412,359.9l9.1,19.7l-13.9,3.7l-6.4-16.1l-3.1,0.8
				l-2.8,18.5l-11.8,3.2L390.6,341.3z"/>
		</g>
	</g>
</g>
<g id="Ollies">
	<g>
		<g>
			<path class="st5" d="M124.2,270.7c-2.9,0-5.6-0.3-8.3-1c-3.5-0.9-6.7-2.3-9.5-4.3c-2.8-2-5.2-4.6-7-7.7
				c-2.4-3.9-3.1-8.5-2.2-13.5c0.9-4.8,2.8-9.9,5.8-15.1c2.9-5.1,6.7-10.3,11.1-15.4c4.4-5.1,9.3-10,14.4-14.5
				c5.1-4.5,10.3-8.6,15.5-12.3c5.1-3.5,9.9-6.4,14.2-8.4c0.8-1.2,2-2.5,3.7-3.9c1.8-1.5,4.3-3.5,7.7-5.9c5.4-3.9,10.3-6.5,14.7-7.7
				c2.4-0.6,4.6-1,6.7-1c1.9,0,3.6,0.3,5.2,0.8c3.4,1.1,6.2,3.3,8.1,6.5c1.9,3.1,3,6.9,3.3,11.5c0.3,4.4-0.1,9.4-1.4,15
				c-1.2,5.5-3.3,11.3-6.3,17.4c-3,6.1-6.7,12.1-11.1,17.8c-4.3,5.7-9.2,11.1-14.5,16.1c-5.3,4.9-11.1,9.4-17.1,13.3
				c-6,3.9-12.3,7.1-18.7,9.5c-3.9,1.5-7.9,2.4-11.8,2.7C126,270.7,125.1,270.7,124.2,270.7z M178.7,174.1c1.8,0.6,1.8,2.1,1.8,2.4
				c-0.1,1.1-0.9,2-2.7,3.2c-1.4,0.9-3.5,1.9-6.4,3c-3.5,1.4-6.9,3.2-10.2,5.2c-3.3,2-6.6,4.3-9.6,6.6c-3.1,2.4-6.1,4.9-8.9,7.4
				c-2.8,2.6-5.6,5.1-8.1,7.6c-2.4,2.4-5.1,5.3-8,8.9c-2.9,3.6-5.8,7.4-8.4,11.4c-2.7,4-5,8-6.9,11.9c-1.9,3.9-3,7.5-3.3,10.7
				c-0.3,3,0.2,5.4,1.7,7.4c1.4,1.9,4.3,3.1,8.5,3.5c1,0.1,2,0.2,2.9,0.2c4.4,0,9-1,13.7-3.1c5.9-2.5,11.7-6.1,17.4-10.7
				c5.7-4.6,11.3-10,16.5-16.1c5.2-6.1,10-12.6,14.1-19.2c4.1-6.6,7.5-13.2,10.2-19.7c2.6-6.4,4.2-12.4,4.8-17.7
				c0.5-4.7-0.1-6.8-0.7-7.8c-0.8-1.3-1.9-1.9-3.4-2c-0.1,0-0.2,0-0.4,0c-1.7,0-3.8,0.6-6.1,1.7c-2.7,1.3-5.5,2.9-8.4,5L178.7,174.1
				z"/>
			<path class="st6" d="M191.1,161.6c1.7,0,3.3,0.2,4.7,0.7c3.1,1,5.5,3,7.2,5.8c1.8,2.9,2.8,6.5,3.1,10.7c0.3,4.3-0.1,9.1-1.4,14.5
				c-1.2,5.4-3.3,11.1-6.2,17.1c-3,6-6.6,11.9-10.9,17.6c-4.3,5.7-9.1,11-14.3,15.9c-5.3,4.9-10.9,9.3-16.9,13.1
				c-6,3.9-12.1,7-18.4,9.4c-3.8,1.5-7.6,2.3-11.3,2.6c-0.9,0.1-1.8,0.1-2.7,0.1c-2.8,0-5.4-0.3-7.9-0.9c-3.3-0.8-6.3-2.2-8.9-4
				c-2.7-1.9-4.9-4.3-6.6-7.2c-2.2-3.6-2.8-7.7-2-12.4c0.9-4.7,2.7-9.5,5.6-14.6c2.9-5,6.5-10.1,11-15.2c4.4-5.1,9.2-9.8,14.2-14.3
				c5.1-4.5,10.2-8.5,15.4-12.2c5.2-3.6,10-6.4,14.4-8.5c0.7-1.2,1.9-2.5,3.7-4c1.7-1.5,4.2-3.4,7.6-5.8c5.2-3.8,10-6.3,14.2-7.5
				C187.1,161.9,189.2,161.6,191.1,161.6 M173.8,175.6c0.9-0.1,1.8-0.1,2.5-0.1c0.5,0,0.9,0,1.2,0.1c0.9,0.1,1.4,0.4,1.4,0.9
				c0,0.5-0.7,1.1-2,2c-1.3,0.8-3.3,1.8-6.1,2.9c-3.6,1.5-7.1,3.3-10.5,5.4c-3.4,2.1-6.6,4.3-9.7,6.7c-3.1,2.4-6.1,4.9-9,7.5
				c-2.9,2.6-5.6,5.2-8.1,7.7c-2.4,2.4-5.1,5.4-8.1,9c-3,3.6-5.8,7.5-8.5,11.5c-2.7,4-5,8.1-7,12.1c-1.9,4-3.1,7.8-3.5,11.2
				c-0.4,3.4,0.3,6.3,2,8.5c1.7,2.3,4.9,3.7,9.6,4.2c1,0.1,2.1,0.2,3.1,0.2c4.6,0,9.4-1.1,14.3-3.2c6-2.6,12-6.3,17.8-10.9
				c5.8-4.7,11.4-10.1,16.7-16.3c5.3-6.2,10.1-12.7,14.3-19.4s7.6-13.4,10.3-19.9c2.7-6.6,4.3-12.6,4.9-18.1
				c0.5-4.1,0.1-7.1-0.9-8.8c-1.1-1.8-2.7-2.7-4.7-2.8c-0.1,0-0.3,0-0.4,0c-2,0-4.2,0.6-6.8,1.8c-2.8,1.3-5.6,3-8.6,5.1L173.8,175.6
				 M191.1,158.4c-2.2,0-4.6,0.3-7.1,1c-4.6,1.2-9.7,3.9-15.3,8c-3.5,2.5-6,4.4-7.8,6c-1.6,1.4-2.8,2.7-3.7,3.9
				c-4.4,2.1-9.1,4.9-14.1,8.4c-5.3,3.7-10.5,7.8-15.7,12.4c-5.1,4.6-10,9.5-14.5,14.6c-4.5,5.2-8.4,10.5-11.3,15.7
				c-3.1,5.3-5.1,10.6-6,15.6c-1,5.4-0.2,10.4,2.4,14.6c1.9,3.3,4.5,6.1,7.5,8.2c3,2.1,6.3,3.6,10,4.5c2.7,0.7,5.6,1,8.6,1
				c1,0,1.9,0,2.9-0.1c4-0.3,8.2-1.2,12.2-2.8c6.5-2.5,12.9-5.7,19-9.7c6.1-3.9,11.9-8.5,17.3-13.5c5.4-5,10.3-10.5,14.7-16.3
				c4.4-5.8,8.2-11.9,11.2-18.1c3-6.2,5.1-12.2,6.4-17.8c1.3-5.7,1.8-10.9,1.4-15.4c-0.4-4.8-1.6-8.9-3.6-12.2c-2.2-3.5-5.2-6-9-7.2
				C195.1,158.7,193.1,158.4,191.1,158.4L191.1,158.4z M181.4,174.2c2.2-1.5,4.4-2.8,6.5-3.7c2.1-1,3.9-1.5,5.4-1.5
				c0.1,0,0.2,0,0.3,0c1,0,1.6,0.4,2.1,1.3c0.3,0.5,1,2.2,0.5,6.8c-0.6,5.1-2.2,11-4.7,17.3c-2.6,6.4-6,12.9-10,19.4
				c-4.1,6.5-8.8,12.9-14,19c-5.2,6-10.7,11.4-16.3,15.9c-5.6,4.5-11.3,8-17.1,10.5c-4.5,2-8.9,2.9-13.1,2.9c-0.9,0-1.9,0-2.8-0.1
				c-3.7-0.4-6.2-1.4-7.4-2.9c-1.2-1.6-1.7-3.7-1.4-6.3c0.3-3,1.4-6.4,3.2-10.1c1.9-3.9,4.1-7.8,6.7-11.7c2.6-3.9,5.4-7.7,8.3-11.3
				c2.9-3.5,5.5-6.5,7.9-8.8c2.5-2.5,5.2-5,8-7.6c2.8-2.5,5.8-5,8.8-7.4c3-2.3,6.2-4.5,9.5-6.5c3.2-2,6.6-3.7,10-5.1
				c3-1.2,5.2-2.2,6.6-3.2c1.6-1,3.2-2.3,3.4-4.4C182.1,176,182,175,181.4,174.2L181.4,174.2z"/>
		</g>
		<g>
			<path class="st5" d="M276.8,179.7c-0.2,0-0.4,0-0.6,0c-1-0.1-1.9-0.2-2.7-0.6c-0.9-0.3-1.7-0.9-2.3-1.5c-0.7-0.8-1-1.8-0.9-2.9
				c0.1-0.7,0.4-1.6,0.9-2.7c0.4-1,0.9-2.1,1.5-3.1c0.6-1.1,1.3-2,2-2.9c0.8-0.9,1.6-1.6,2.4-2.1l0.1,0l0.1,0
				c0.7-0.3,1.5-0.4,2.4-0.4c0.2,0,0.4,0,0.6,0c1.1,0.1,2.1,0.3,3.1,0.7c1,0.4,1.9,1,2.5,1.7c1,1.1,1.1,2,1.1,2.7
				c0,0.8-0.4,1.7-1,2.9c-0.6,1-1.3,2.1-2,3.1c-0.8,1-1.6,2-2.4,2.9c-1,1-1.8,1.6-2.5,1.9l-0.1,0l-0.1,0
				C278.1,179.6,277.5,179.7,276.8,179.7L276.8,179.7z"/>
			<path class="st6" d="M279.6,165c0.2,0,0.3,0,0.5,0c0.9,0.1,1.8,0.3,2.6,0.6c0.8,0.4,1.5,0.8,2,1.3c0.5,0.5,0.7,1,0.6,1.5
				c0,0.5-0.3,1.3-0.8,2.2c-0.5,1-1.2,1.9-1.9,2.9c-0.7,1-1.5,1.9-2.3,2.7c-0.8,0.8-1.5,1.4-2,1.6c-0.4,0.1-0.9,0.2-1.5,0.2
				c-0.2,0-0.4,0-0.5,0c-0.8,0-1.6-0.2-2.2-0.4c-0.7-0.3-1.2-0.6-1.6-1.1c-0.4-0.5-0.6-1-0.5-1.6c0.1-0.5,0.3-1.3,0.7-2.3
				c0.4-1,0.9-2,1.4-2.9c0.5-1,1.2-1.9,1.8-2.6c0.7-0.8,1.3-1.4,2-1.7C278.3,165.1,278.9,165,279.6,165 M279.6,161.8
				c-1.1,0-2.1,0.2-3,0.5l-0.2,0.1l-0.2,0.1c-1,0.5-1.9,1.3-2.9,2.4c-0.8,1-1.6,2-2.2,3.2c-0.6,1.1-1.1,2.2-1.6,3.3
				c-0.5,1.2-0.8,2.2-0.9,3l0,0l0,0c-0.2,1.6,0.2,3.1,1.3,4.2c0.7,0.8,1.7,1.5,2.9,1.9c1,0.4,2,0.6,3.2,0.6c0.2,0,0.5,0,0.7,0
				c0.9,0,1.6-0.1,2.3-0.3l0.2-0.1l0.2-0.1c1-0.4,1.9-1.1,3.1-2.3c0.9-0.9,1.8-2,2.6-3.1c0.8-1.1,1.5-2.2,2.1-3.3
				c0.8-1.4,1.2-2.5,1.2-3.5c0.1-0.9,0-2.4-1.5-4c-0.8-0.8-1.8-1.5-3-2c-1.1-0.5-2.4-0.8-3.6-0.9
				C280.1,161.8,279.9,161.8,279.6,161.8L279.6,161.8z"/>
		</g>
		<g>
			<path class="st5" d="M210.9,224.8c-0.8,0-1.5-0.1-2.3-0.2c-1.7-0.3-3.1-1-4.2-2.1c-1.2-1.2-1.9-2.9-1.9-5.1
				c0-0.9,0.3-2.5,2.4-7.6c1.5-3.6,3.5-8,5.9-12.9c2.5-5,5.3-10.3,8.4-15.9c3.2-5.6,6.5-11.1,9.9-16.2c3.4-5.2,6.9-9.9,10.4-13.9
				c3.5-4.2,6.9-7.2,10-9.1c1-0.7,2.4-1.2,4.3-1.6c1.5-0.3,2.9-0.5,4.3-0.5c0.3,0,0.5,0,0.8,0c1.8,0.1,3.4,0.5,4.7,1.2
				c1.7,0.9,2.5,2.3,2.5,4.2c0,1.2-0.4,2.7-1.2,4.6c2.6-3.4,5.2-6.5,7.7-9.3c3.9-4.3,7.4-7.5,10.5-9.3c1-0.7,2.4-1.2,4.3-1.6
				c1.5-0.3,2.9-0.5,4.3-0.5c0.3,0,0.5,0,0.8,0c1.8,0.1,3.4,0.5,4.7,1.2c1.7,0.9,2.5,2.3,2.5,4.2c0,1.7-0.9,4.1-2.9,7.3
				c-1.8,2.9-4.2,6.4-7.1,10.2c-2.9,3.8-6.4,8-10.1,12.4c-3.7,4.4-7.7,8.9-11.7,13.4c-4,4.5-8.1,8.9-12.2,13c-4,4.1-7.7,7.8-11,11
				c-0.9,1.5-1.7,2.8-2.2,4c-0.3,0.6-0.5,1.1-0.7,1.7c0.2-0.1,0.4-0.2,0.5-0.4c1.9-1.3,4-2.8,6.2-4.5c2.2-1.7,4.5-3.5,6.7-5.3
				c1.6-1.3,2.8-2.3,3.8-3c0.6-1.7,1.3-3.2,2.1-4.7c0.9-1.8,1.9-3.3,2.8-4.6c1.2-1.6,2.3-2.4,3.5-2.6l0.1,0l0.1,0
				c0.7,0,1.5,0.1,2.3,0.2c0.9,0.1,1.6,0.3,2.3,0.6c0.8,0.3,1.5,0.8,2.1,1.4c0.5,0.5,1,1.5,0.8,3c-0.1,0.9-0.5,2.1-1.4,3.9
				c-0.7,1.5-1.4,3.1-2.2,4.7c-0.4,0.9-0.8,1.8-1.2,2.6c0.6-0.5,1.4-1,2.1-1.7c1.4-1.1,2.9-2.5,4.5-4c1.6-1.5,3.3-3.2,4.8-5
				c0.3-0.4,0.7-0.7,1-1.1c0.1-0.3,0.3-0.5,0.5-0.8c1.1-1.8,2.4-3.5,3.8-5c1.4-1.5,2.9-2.8,4.4-3.9c1.6-1.2,2.9-1.9,4.1-2.2
				c0.6-0.2,1.3-0.2,1.9-0.2c0.5,0,1,0,1.5,0.1c1.2,0.2,2.4,0.6,3.4,1.1c1.1,0.6,2,1.4,2.6,2.4c0.7,1.1,1,2.3,0.9,3.7l0,0.1l0,0.1
				c-0.2,1.3-1,2.8-2.3,4.6c-1.2,1.6-2.6,3.3-4,4.9c-0.1,0.1-0.2,0.2-0.3,0.4c0.6-0.4,1.3-0.8,2.1-1.3c4.3-2.8,8.9-6.7,13.6-11.5
				c2.2-2.1,3-2.5,3.8-2.5c0.7,0,1.3,0.4,1.6,1c0.4,1,0.2,2.1-1,4.2c-0.8,1.5-2,3.5-3.5,5.6c-1.5,2.2-3.2,4.3-5.1,6.4
				c-1.8,2.1-3.8,4.1-5.8,5.9c-2.1,1.9-4.1,3.2-6,4c-1,0.4-2.2,0.6-3.5,0.6c-0.6,0-1.3,0-1.9-0.1c-2.1-0.3-4.1-0.9-6-1.9
				c-2-1-3.6-2.4-4.9-4.1c-0.1-0.1-0.2-0.2-0.2-0.3c-1.2,1.4-2.5,2.8-3.7,4.2c-1.6,1.7-3.1,3.2-4.5,4.5c-1.5,1.4-2.6,2.3-3.5,2.7
				l-0.1,0l-0.1,0c-1,0.3-2.1,0.5-3.2,0.5c-0.3,0-0.6,0-0.9,0c-1.5-0.1-3-0.5-4.3-1.1c-1.5-0.7-2.7-1.6-3.6-2.9
				c-0.3-0.4-0.5-0.8-0.7-1.3c-1.1,1.2-2.1,2.3-3.2,3.3c-1.7,1.8-3.4,3.3-5.1,4.7c-1.7,1.4-3.3,2.4-4.8,3.1c-1.3,0.6-2.8,1-4.4,1.3
				c-0.9,0.2-1.8,0.3-2.7,0.3c-0.8,0-1.5-0.1-2.3-0.2c-1.7-0.3-3.1-1-4.2-2.1c-0.6-0.6-1-1.2-1.4-2c-0.7,0.8-1.4,1.5-2.1,2.2
				c-1.7,1.8-3.4,3.3-5.1,4.7c-1.7,1.4-3.3,2.4-4.8,3.1c-1.3,0.6-2.8,1-4.4,1.3C212.7,224.7,211.8,224.8,210.9,224.8z M218.1,209.1
				c-0.9,1.5-1.7,2.8-2.2,4c-0.3,0.6-0.5,1.1-0.7,1.7c0.2-0.1,0.4-0.2,0.6-0.4c1.9-1.3,4-2.8,6.2-4.5c2.2-1.7,4.5-3.5,6.7-5.3
				c1.8-1.5,3.3-2.6,4.3-3.3c1.8-3.6,4-7.8,6.7-12.5c1.9-3.3,4-6.8,6.2-10.5c-2,2.5-4.1,5.1-6.3,7.6c-3.6,4.2-7.3,8.4-10.9,12.4
				C224.9,202.3,221.4,205.9,218.1,209.1z M255.1,151.9c-0.8,1-1.7,2.2-2.7,3.5c-1.6,2.2-3.5,4.9-5.6,7.9c-2.1,3-4.1,6.1-6.2,9.2
				c-1.1,1.7-2.2,3.4-3.4,5.2c1.9-2.4,3.8-5,5.7-7.5c2.8-3.8,5.3-7.3,7.5-10.6C252.4,156.7,254,154.1,255.1,151.9z M288.3,141.4
				c-1,1.1-2.1,2.3-3.3,3.8c-2,2.4-4.3,5.3-6.7,8.5c-2.4,3.2-4.9,6.5-7.4,9.9c-0.8,1.1-1.6,2.2-2.5,3.4c1.6-1.9,3.2-3.8,4.8-5.7
				c3.4-4.1,6.5-7.9,9.2-11.4C284.8,146.6,286.8,143.7,288.3,141.4z"/>
			<path class="st6" d="M292,130.7c0.2,0,0.5,0,0.7,0c1.5,0.1,2.9,0.4,4,1c1.1,0.6,1.7,1.5,1.7,2.7c0,1.4-0.9,3.5-2.6,6.5
				c-1.8,2.9-4.1,6.3-7,10.1c-2.9,3.8-6.3,7.9-10.1,12.4c-3.8,4.5-7.7,8.9-11.7,13.4c-4,4.5-8.1,8.8-12.1,13
				c-4.1,4.2-7.8,7.9-11.1,11.1c-1,1.6-1.8,3-2.4,4.3c-0.5,1.1-1,2.2-1.3,3.2c-0.3,1-0.2,1.6,0.2,1.8c0,0,0.1,0,0.1,0
				c0.4,0,1.5-0.6,3.1-1.7c1.9-1.3,4-2.8,6.3-4.6c2.3-1.7,4.6-3.5,6.8-5.3c1.8-1.4,3.2-2.5,4.2-3.2c0.6-1.7,1.3-3.4,2.1-4.9
				c0.9-1.7,1.8-3.2,2.7-4.4c0.9-1.2,1.7-1.9,2.4-2c0.6,0,1.3,0.1,2,0.2c0.7,0.1,1.4,0.3,2,0.5c0.6,0.2,1.1,0.6,1.4,1
				c0.4,0.4,0.5,1,0.4,1.7c-0.1,0.7-0.5,1.9-1.2,3.4c-0.7,1.5-1.4,3.1-2.2,4.7c-0.7,1.6-1.4,3-1.9,4.3c-0.5,1.3-0.6,2-0.3,2.2
				c0,0,0.1,0,0.1,0c0.3,0,0.9-0.3,1.8-0.9c1-0.7,2.3-1.6,3.7-2.7c1.4-1.2,2.9-2.5,4.6-4.1c1.7-1.6,3.3-3.3,4.9-5.1
				c0.4-0.4,0.7-0.8,1.1-1.1c0.2-0.3,0.3-0.6,0.5-0.9c1.1-1.7,2.3-3.3,3.7-4.8c1.4-1.5,2.7-2.7,4.1-3.7c1.4-1,2.6-1.7,3.6-1.9
				c0.5-0.1,1-0.2,1.5-0.2c0.4,0,0.8,0,1.3,0.1c1,0.2,2,0.5,2.8,0.9c0.9,0.5,1.5,1.1,2,1.9c0.5,0.8,0.7,1.7,0.6,2.6
				c-0.2,1-0.9,2.3-2,3.9c-1.2,1.6-2.5,3.2-3.9,4.8c-1.6,1.8-3.5,3.8-5.7,5.8c2,0,5.2-1.5,9.5-4.4c4.4-2.9,9-6.8,13.9-11.7
				c1.4-1.4,2.3-2,2.7-2c0.1,0,0.1,0,0.2,0.1c0.2,0.4-0.1,1.3-0.9,2.7c-0.8,1.5-2,3.4-3.5,5.5c-1.5,2.1-3.1,4.2-4.9,6.3
				c-1.8,2.1-3.7,4-5.7,5.7c-2,1.8-3.8,3-5.5,3.7c-0.8,0.3-1.8,0.5-2.9,0.5c-0.5,0-1.1,0-1.7-0.1c-1.9-0.2-3.7-0.8-5.5-1.7
				c-1.8-0.9-3.2-2.1-4.4-3.7c-0.6-0.7-0.9-1.5-1.1-2.3c-0.2,0.3-0.4,0.5-0.6,0.8c-1.5,1.8-3.1,3.6-4.7,5.3c-1.6,1.7-3,3.2-4.4,4.4
				c-1.4,1.3-2.4,2.1-3.1,2.5c-0.8,0.3-1.7,0.4-2.7,0.4c-0.2,0-0.5,0-0.8,0c-1.3-0.1-2.6-0.4-3.8-0.9c-1.2-0.5-2.2-1.3-3-2.4
				c-0.8-1.1-1.1-2.4-0.9-4c0,0,0,0,0,0c-0.1,0.2-0.3,0.3-0.4,0.5c-1.7,1.9-3.4,3.7-5.1,5.4c-1.7,1.7-3.3,3.2-4.9,4.5
				c-1.6,1.3-3.1,2.3-4.5,2.9c-1.2,0.5-2.5,0.9-4.1,1.2c-0.8,0.1-1.6,0.2-2.4,0.2c-0.7,0-1.3-0.1-2-0.2c-1.4-0.2-2.5-0.8-3.4-1.6
				c-0.9-0.8-1.4-2.1-1.4-3.9c0-0.2,0-0.4,0.1-0.6c-1.5,1.7-3,3.3-4.5,4.8c-1.7,1.7-3.3,3.2-4.9,4.5c-1.6,1.3-3.1,2.3-4.5,2.9
				c-1.2,0.5-2.5,0.9-4.1,1.2c-0.8,0.1-1.6,0.2-2.4,0.2c-0.7,0-1.3-0.1-2-0.2c-1.4-0.2-2.5-0.8-3.4-1.6c-0.9-0.8-1.4-2.1-1.4-3.9
				c0-1,0.7-3.4,2.2-7c1.5-3.6,3.5-7.9,5.9-12.8c2.4-4.9,5.2-10.2,8.4-15.8c3.2-5.6,6.4-11,9.9-16.1c3.4-5.1,6.9-9.7,10.3-13.8
				c3.4-4.1,6.6-7,9.6-8.7c0.9-0.6,2.2-1.1,3.8-1.4c1.4-0.3,2.7-0.4,4-0.4c0.3,0,0.5,0,0.8,0c1.5,0.1,2.9,0.4,4,1
				c1.1,0.6,1.7,1.5,1.7,2.7c0,1.4-0.7,3.5-2.2,6.2c-1.4,2.7-3.4,5.9-5.8,9.4c-2.4,3.6-5.2,7.4-8.4,11.5c-3.2,4.1-6.6,8.3-10.2,12.5
				c-3.6,4.2-7.2,8.3-10.9,12.3c-3.7,4-7.2,7.6-10.6,10.9c-1,1.6-1.8,3-2.4,4.3c-0.5,1.1-1,2.2-1.3,3.2c-0.3,1-0.2,1.6,0.2,1.8
				c0,0,0.1,0,0.1,0c0.4,0,1.5-0.6,3.1-1.7c1.9-1.3,4-2.8,6.3-4.6c2.3-1.7,4.6-3.5,6.8-5.3c2.1-1.6,3.6-2.8,4.6-3.5
				c1.8-3.7,4-7.9,6.8-12.8c2.9-5.1,6.3-10.7,10-16.6c3.7-5.9,7.6-11.6,11.5-17c3.9-5.4,7.8-10.2,11.6-14.5c3.8-4.2,7.2-7.2,10.2-9
				c0.9-0.6,2.2-1.1,3.8-1.4C289.3,130.8,290.7,130.7,292,130.7 M249.8,190.2c1.2-1.2,3.1-3.2,5.8-6.1c2.7-2.9,5.6-6.2,8.9-10
				c3.2-3.8,6.6-7.7,10-11.8c3.4-4.1,6.5-7.9,9.2-11.5c2.7-3.6,4.8-6.6,6.4-9.2c1.5-2.5,2-4.1,1.5-4.6c-0.1-0.1-0.2-0.1-0.3-0.1
				c-0.5,0-1.2,0.5-2.4,1.6c-1.4,1.3-3.1,3.2-5.1,5.7c-2,2.5-4.3,5.3-6.7,8.5c-2.4,3.2-4.9,6.5-7.4,9.9
				C263.7,170.6,257.1,179.8,249.8,190.2 M222.9,197.4c1.2-1.2,2.9-3.2,5.2-5.9c2.3-2.8,4.8-5.9,7.6-9.4c2.8-3.5,5.6-7.1,8.5-11
				c2.8-3.8,5.4-7.4,7.6-10.7c2.2-3.3,3.9-6.1,5.1-8.5c1.2-2.4,1.5-3.8,0.9-4.4c-0.1-0.1-0.2-0.1-0.3-0.1c-0.4,0-1.1,0.5-2.1,1.5
				c-1.2,1.3-2.7,3.1-4.3,5.3c-1.7,2.3-3.5,4.9-5.6,7.9c-2.1,3-4.2,6.1-6.2,9.3C234.3,179.1,228.8,187.7,222.9,197.4 M290.3,194.9
				c0.5-0.4,1.4-1.3,2.6-2.5c1.2-1.3,2.4-2.7,3.7-4.1c1.2-1.5,2.2-2.8,3-3.9c0.8-1.1,1.1-1.8,0.8-2c-0.1,0-0.1,0-0.2,0
				c-0.4,0-1.2,0.4-2.3,1.3c-1.3,1-2.6,2.2-3.9,3.6c-1.3,1.4-2.3,2.8-3.2,4.3C290,193.1,289.8,194.2,290.3,194.9 M292,127.4
				c-1.5,0-3.1,0.2-4.7,0.5c-2,0.4-3.6,1-4.8,1.8c-3.3,1.9-6.8,5.1-10.9,9.6c-1.3,1.4-2.5,2.9-3.8,4.5c-0.4-1.8-1.5-3.3-3.2-4.2
				c-1.6-0.8-3.4-1.3-5.4-1.4c-0.3,0-0.6,0-0.9,0c-1.5,0-3.1,0.2-4.7,0.5c-2,0.4-3.6,1-4.8,1.8c-3.3,2-6.7,5-10.4,9.4
				c-3.5,4.1-7,8.9-10.5,14.1c-3.5,5.2-6.8,10.7-10,16.3c-3.2,5.6-6,10.9-8.5,15.9c-2.5,5-4.5,9.3-6,13c-2.2,5.3-2.5,7.1-2.5,8.2
				c0,2.7,0.8,4.8,2.4,6.2c1.4,1.3,3.1,2.1,5,2.5c0.8,0.1,1.7,0.2,2.5,0.2c1,0,1.9-0.1,2.9-0.3c1.8-0.3,3.4-0.8,4.7-1.4l0.1,0l0.1,0
				c1.6-0.7,3.3-1.8,5.1-3.3c1.7-1.4,3.5-3,5.2-4.8c0.2-0.2,0.5-0.5,0.7-0.7c0.2,0.2,0.4,0.4,0.5,0.6c1.4,1.3,3,2.1,5,2.5
				c0.8,0.1,1.7,0.2,2.5,0.2c1,0,1.9-0.1,3-0.3c1.7-0.3,3.3-0.8,4.7-1.3l0.1,0l0.1,0c1.6-0.7,3.3-1.8,5.1-3.3c1.7-1.4,3.5-3,5.2-4.8
				c0.6-0.6,1.1-1.2,1.7-1.8c1.1,1.3,2.4,2.4,4,3.1c1.6,0.7,3.2,1.1,4.9,1.2c0.3,0,0.6,0,1,0c1.4,0,2.6-0.2,3.8-0.6l0.2-0.1l0.2-0.1
				c1-0.5,2.2-1.5,3.9-3c1.4-1.3,2.9-2.9,4.5-4.6c0.8-0.9,1.7-1.8,2.5-2.8c1.3,1.3,2.8,2.5,4.4,3.4c2.1,1.1,4.3,1.8,6.6,2.1
				c0.7,0.1,1.5,0.1,2.1,0.1c1.5,0,2.9-0.3,4.1-0.7c2.1-0.9,4.2-2.3,6.4-4.3c2.1-1.8,4.1-3.8,6-6c1.9-2.1,3.6-4.4,5.2-6.6
				c1.5-2.2,2.8-4.2,3.6-5.8c1-1.7,1.9-3.7,1-5.6c-0.6-1.2-1.8-2-3.1-2c-1.6,0-2.9,1-4.9,3c-2.4,2.4-4.7,4.5-7,6.4
				c0.3-0.7,0.5-1.3,0.6-2l0-0.1l0-0.1c0.2-1.7-0.2-3.3-1.1-4.7c-0.8-1.2-1.9-2.2-3.2-3c-1.2-0.6-2.5-1.1-3.9-1.3
				c-0.6-0.1-1.2-0.1-1.7-0.1c-0.8,0-1.6,0.1-2.4,0.3c-1.4,0.4-2.9,1.2-4.7,2.5c-1.5,1.1-3.1,2.5-4.6,4.1c-1.5,1.6-2.8,3.4-4,5.3
				c-0.1,0.2-0.3,0.5-0.4,0.7c-0.3,0.3-0.6,0.6-0.9,1c-1.5,1.7-3.1,3.4-4.7,4.9c-0.4,0.4-0.7,0.7-1.1,1c0.1-0.3,0.2-0.5,0.4-0.8
				c0.9-1.9,1.4-3.3,1.5-4.4c0.3-2.1-0.5-3.4-1.1-4.2c-0.7-0.8-1.6-1.5-2.7-1.9c-0.8-0.3-1.7-0.6-2.7-0.7c-0.9-0.1-1.7-0.2-2.5-0.2
				l-0.3,0l-0.3,0c0,0,0,0,0,0c0.6-0.7,1.3-1.4,1.9-2.1c4.1-4.5,8-9,11.8-13.5c3.8-4.5,7.2-8.7,10.2-12.5c3-3.9,5.4-7.4,7.2-10.4
				c2.1-3.5,3.1-6.1,3.1-8.1c0-2.4-1.2-4.4-3.4-5.6c-1.6-0.8-3.4-1.3-5.4-1.4C292.6,127.4,292.3,127.4,292,127.4L292,127.4z
				 M247.9,201.4c2.9-2.8,6-6,9.3-9.4c0.9-1,1.9-1.9,2.8-2.9c-0.7,1.3-1.3,2.8-1.9,4.3c-0.9,0.7-2.1,1.6-3.5,2.7
				C252.3,197.9,250.1,199.7,247.9,201.4L247.9,201.4z M220.9,208.6c2.8-2.8,5.8-5.9,8.8-9.2c1.8-1.9,3.6-3.9,5.4-5.9
				c-1.3,2.4-2.5,4.7-3.5,6.8c-1,0.8-2.3,1.8-4,3.1C225.3,205.2,223.1,206.9,220.9,208.6L220.9,208.6z"/>
		</g>
		<g>
			<path class="st5" d="M319.6,176.2c-0.3,0-0.6,0-0.8-0.1c-0.7-0.1-2.8-0.8-2.3-4c0.1-0.5,0.3-1.3,1.2-4c0.7-1.9,1.5-3.9,2.3-6
				c0.9-2.1,1.8-4,2.8-5.8c1.1-2.1,2.1-3.3,3-3.8l0.1,0l0.1,0c0.7-0.3,1.5-0.4,2.4-0.4c0.2,0,0.4,0,0.6,0c1.1,0.1,2.1,0.3,3.1,0.7
				c1,0.4,1.9,1,2.5,1.7c1,1.1,1.1,2.1,1.1,2.7c0,0.7-0.3,1.6-1.8,3.9c-1.1,1.6-2.3,3.4-3.7,5.2c-1.4,1.9-2.8,3.6-4.2,5.2
				c-1.4,1.7-2.4,2.7-3,3.3C321.9,175.7,320.8,176.2,319.6,176.2L319.6,176.2z"/>
			<path class="st6" d="M328.3,153.7c0.2,0,0.3,0,0.5,0c0.9,0.1,1.8,0.3,2.6,0.6c0.8,0.3,1.5,0.8,2,1.3c0.5,0.5,0.7,1,0.6,1.5
				c0,0.5-0.5,1.6-1.6,3.2c-1,1.6-2.3,3.3-3.7,5.1s-2.8,3.5-4.1,5.1c-1.4,1.6-2.3,2.6-2.8,3.1c-0.7,0.7-1.5,1-2.2,1
				c-0.2,0-0.3,0-0.5-0.1c-0.9-0.2-1.3-0.9-1.1-2.2c0.1-0.5,0.5-1.8,1.2-3.6c0.7-1.9,1.4-3.9,2.3-5.9c0.9-2.1,1.8-4,2.7-5.7
				c0.9-1.7,1.7-2.8,2.4-3.1C327.1,153.8,327.7,153.7,328.3,153.7 M328.3,150.4c-1.1,0-2.1,0.2-3,0.5l-0.2,0.1l-0.2,0.1
				c-1.2,0.7-2.3,2-3.7,4.4c-1,1.8-2,3.9-2.9,6c-0.9,2.1-1.7,4.1-2.4,6.1c-1,2.7-1.2,3.7-1.3,4.2l0,0l0,0c-0.5,3.6,1.6,5.4,3.6,5.8
				c0.4,0.1,0.8,0.1,1.2,0.1c1.1,0,2.7-0.3,4.4-1.9c0.4-0.4,1.2-1.2,3.1-3.4c1.3-1.6,2.8-3.3,4.2-5.2c1.4-1.9,2.7-3.6,3.8-5.3
				c1.4-2.1,2-3.4,2.1-4.6c0.1-0.9,0-2.5-1.5-4c-0.8-0.8-1.8-1.5-3-2c-1.1-0.5-2.4-0.8-3.6-0.9C328.8,150.4,328.6,150.4,328.3,150.4
				L328.3,150.4z"/>
		</g>
		<g>
			<path class="st5" d="M332.6,198.5c-1.7-0.1-3.2-0.4-4.5-1.1c-1.3-0.7-2.4-1.6-3.3-2.6c-1-1.2-1.4-2.4-1.4-3.7
				c0-0.9,0.3-1.9,0.9-3.1c0.6-1,1.3-2.1,2.2-3.1c0.9-1,1.8-2.1,2.8-3.1c0.2-0.2,0.5,0,0.7-0.8c0,0,0,0,0,0c-1.6,0-2.9-0.4-3.8-1.5
				c-1.1-1.2-1.6-2.8-1.4-4.7c0.2-1.7,0.6-3.3,1.4-5c0.8-1.6,1.8-3.1,3-4.5c1.3-1.4,2.6-2.3,3.9-2.9c0.7-0.3,1.4-0.4,2.2-0.4
				c0.3,0,0.7,0,1,0.1c1,0.2,1.9,0.5,2.8,1c0.9,0.5,1.6,1.1,2.2,1.8c0.7,0.9,1,1.8,1,2.8c0,1.5-0.6,2.9-1.8,4.1
				c0.2,0,0.4-0.1,0.5-0.1c1-0.1,2-0.2,2.9-0.2c0.7,0,1.4,0,2,0.1c1.6,0.2,2.9,0.8,4,1.6c1.1,1,1.7,2.3,1.7,3.9c0,1.4-0.4,3-1.3,5
				c-0.8,1.9-1.9,3.8-3.1,5.6c-1.3,1.9-2.7,3.7-4.4,5.4c-1.7,1.8-3.4,3.1-5,3.9c-1.7,0.8-3.3,1.2-4.9,1.2
				C332.9,198.5,332.7,198.5,332.6,198.5z M337.6,179.7c0,0.2,0.1,0.4,0.1,0.5c0.2-0.3,0.3-0.5,0.4-0.7
				C338,179.6,337.8,179.7,337.6,179.7z"/>
			<path class="st6" d="M335.3,163.8c0.2,0,0.5,0,0.8,0.1c0.8,0.1,1.6,0.4,2.2,0.8c0.7,0.4,1.2,0.9,1.7,1.4c0.5,0.6,0.7,1.2,0.7,1.8
				c0,1.2-0.6,2.4-1.8,3.5c-1.2,1.1-2.2,2.3-3,3.7c1.9-0.8,3.7-1.3,5.3-1.5c1-0.1,1.8-0.2,2.7-0.2c0.6,0,1.2,0,1.8,0.1
				c1.3,0.2,2.3,0.6,3.1,1.3c0.8,0.7,1.2,1.6,1.2,2.7c0,1.1-0.4,2.6-1.2,4.4s-1.8,3.6-3,5.4c-1.2,1.8-2.6,3.5-4.2,5.2
				c-1.6,1.6-3.1,2.8-4.5,3.6c-1.4,0.7-2.8,1.1-4.2,1.1c-0.1,0-0.2,0-0.3,0c-1.4,0-2.7-0.4-3.9-0.9c-1.1-0.6-2.1-1.3-2.8-2.2
				c-0.7-0.9-1.1-1.8-1.1-2.7c0-0.6,0.3-1.4,0.7-2.3c0.5-0.9,1.2-1.9,2-2.8c0.8-1,1.7-1.9,2.7-2.8c1-0.9,2-1.7,3-2.4
				c1-0.7,1.7-1.1,2.2-1.1c0.2,0,0.4,0.1,0.5,0.3c0.3,0.6,0,1.5-0.9,2.7c-0.3,0.3-0.7,0.9-1.3,1.7c-0.6,0.8-1.2,1.6-1.8,2.4
				c-0.6,0.8-1.1,1.6-1.5,2.3c-0.4,0.7-0.5,1.2-0.2,1.4c0.1,0,0.2,0.1,0.3,0.1c0.5,0,1.2-0.4,2.1-1.3c1.1-1,2.3-2.3,3.4-3.8
				c1.1-1.5,2.1-2.9,3-4.3c0.9-1.4,1.2-2.4,1.2-3c-0.1-0.4-0.4-0.5-0.9-0.5c-0.3,0-0.6,0.1-1,0.2c-1.1,0.3-2.3,0.7-3.7,1.1
				c-1.4,0.4-2.7,0.7-4.1,0.8c-0.2,0-0.4,0-0.6,0c-1.1,0-1.9-0.4-2.6-1.1c-0.8-0.9-1.1-2.1-1-3.6c0.1-1.5,0.6-3,1.3-4.5
				c0.7-1.5,1.6-2.9,2.8-4.1c1.1-1.2,2.2-2.1,3.3-2.5C334.2,163.9,334.7,163.8,335.3,163.8 M335.3,160.6c-0.9,0-1.8,0.2-2.7,0.5
				l-0.1,0l-0.1,0c-1.5,0.7-3,1.7-4.4,3.3c-1.3,1.4-2.5,3.1-3.3,4.9c-0.9,1.8-1.4,3.7-1.6,5.6c-0.3,3,0.8,4.9,1.8,6
				c0.4,0.5,1,1,1.8,1.4c-0.5,0.6-1,1.1-1.5,1.7c-1,1.1-1.7,2.3-2.3,3.4c-0.8,1.4-1.1,2.7-1.1,3.8c0,1.6,0.6,3.2,1.8,4.7
				c1,1.2,2.3,2.3,3.8,3.1c1.5,0.8,3.3,1.2,5.2,1.3c0.1,0,0.2,0,0.4,0c1.9,0,3.8-0.5,5.6-1.4c1.8-0.9,3.6-2.3,5.4-4.2
				c1.7-1.8,3.2-3.7,4.5-5.6c1.3-2,2.4-3.9,3.3-5.9c1-2.2,1.4-4.1,1.4-5.6c0-2.1-0.8-3.8-2.3-5.1c-1.3-1.1-2.9-1.8-4.8-2
				c-0.7-0.1-1.4-0.1-2.2-0.1c-0.1,0-0.3,0-0.4,0c0.3-0.8,0.4-1.6,0.4-2.2c0-1.3-0.5-2.6-1.4-3.8c-0.7-0.9-1.6-1.7-2.6-2.3
				c-1-0.6-2.1-1-3.3-1.2C336.1,160.6,335.7,160.6,335.3,160.6L335.3,160.6z"/>
		</g>
	</g>
</g>
</svg>
